<?xml version="1.0" standalone="no"?>
<!DOCTYPE svg PUBLIC "-//W3C//DTD SVG 20010904//EN"
 "http://www.w3.org/TR/2001/REC-SVG-20010904/DTD/svg10.dtd">
<svg version="1.0" xmlns="http://www.w3.org/2000/svg"
 width="405.000000pt" height="405.000000pt" viewBox="0 0 405.000000 405.000000"
 preserveAspectRatio="xMidYMid meet">
<metadata>
Created by potrace 1.14, written by Peter Selinger 2001-2017
</metadata>
<g transform="translate(0.000000,405.000000) scale(0.100000,-0.100000)"
fill="#000000" stroke="none">
<path d="M480 3316 c-13 -13 -13 -26 1 -26 5 0 8 4 4 9 -3 6 4 8 15 6 11 -2
18 0 15 6 -4 5 -2 9 3 9 14 0 23 -28 12 -35 -5 -3 -11 -1 -14 4 -4 6 -17 4
-32 -4 -18 -9 -34 -11 -50 -5 -14 6 -26 6 -29 0 -3 -5 -14 -7 -24 -5 -10 2
-18 -3 -18 -11 0 -10 4 -11 13 -3 9 7 14 6 20 -3 4 -7 3 -10 -1 -5 -5 4 -17
-1 -28 -10 -11 -10 -17 -13 -14 -6 4 6 3 14 -3 18 -9 5 -15 -15 -11 -38 1 -4
-8 -3 -19 3 -16 9 -20 8 -20 -5 0 -8 -5 -15 -11 -15 -5 0 -7 5 -4 10 3 6 1 10
-4 10 -14 0 -14 -13 -1 -26 6 -6 3 -10 -10 -11 -13 -1 -18 2 -14 9 4 7 2 8 -5
4 -6 -4 -8 -12 -5 -18 5 -8 1 -9 -12 -5 -18 7 -18 6 1 -9 19 -15 19 -15 -8
-10 -19 3 -30 0 -34 -10 -3 -7 -10 -11 -17 -7 -6 4 -4 -1 3 -11 13 -16 13 -17
-5 -14 -14 2 -18 -2 -16 -16 3 -17 2 -18 -13 -6 -14 11 -16 11 -13 -1 2 -8 8
-17 13 -21 6 -4 2 -8 -9 -8 -12 0 -16 -5 -13 -14 4 -11 1 -13 -10 -9 -13 5
-14 3 -3 -18 l13 -24 -22 20 -22 19 10 -26 c9 -23 8 -26 -6 -21 -13 5 -15 2
-10 -11 4 -10 3 -15 -3 -11 -6 3 -10 1 -10 -5 0 -6 -4 -8 -10 -5 -6 3 -7 -1
-4 -9 3 -9 11 -13 17 -9 6 4 7 1 3 -6 -5 -7 -14 -10 -22 -7 -19 7 -18 -4 3
-21 10 -8 12 -11 4 -7 -10 5 -13 3 -8 -9 4 -11 2 -14 -8 -11 -8 3 -13 11 -12
16 1 6 -5 13 -13 15 -12 4 -12 3 -1 -5 8 -6 9 -12 3 -16 -5 -3 -9 -17 -9 -31
0 -15 4 -22 11 -18 7 4 7 1 -1 -8 -8 -10 -12 -61 -11 -162 0 -133 6 -170 22
-134 4 8 5 7 4 -3 -1 -19 28 -86 41 -95 6 -3 8 -12 5 -19 -3 -9 3 -17 15 -21
17 -5 19 -10 11 -26 -8 -14 -8 -19 1 -17 6 2 13 -5 14 -15 5 -26 11 -31 19
-12 4 11 2 14 -6 9 -7 -4 -8 -3 -4 5 9 13 65 -26 65 -46 1 -7 6 -13 11 -13 6
0 10 -9 10 -19 0 -11 4 -22 9 -25 5 -4 7 4 5 16 -2 13 -2 17 2 10 3 -6 10 -10
15 -6 5 3 9 0 9 -5 0 -6 8 -11 18 -11 9 0 23 -9 30 -20 7 -11 18 -20 25 -20 6
0 4 5 -6 11 -18 11 -14 29 6 29 7 0 6 -4 -3 -10 -16 -10 -10 -13 32 -13 10 0
15 -4 12 -8 -5 -9 17 -13 44 -10 6 1 12 -3 12 -9 0 -6 -4 -9 -9 -5 -5 3 -13 0
-17 -7 -4 -7 -4 -10 1 -6 4 4 14 0 22 -10 8 -9 12 -11 8 -4 -8 15 13 44 26 36
5 -3 7 -10 3 -15 -3 -5 -10 -6 -16 -3 -7 5 -8 2 -4 -5 5 -7 10 -10 13 -7 3 2
16 1 29 -4 18 -7 22 -6 17 5 -3 8 0 15 6 15 6 0 11 -4 11 -10 0 -5 7 -7 15 -4
11 5 13 2 8 -12 -4 -12 -3 -15 5 -10 7 4 12 15 12 24 1 15 2 15 10 1 6 -11 19
-14 39 -11 17 2 28 8 25 13 -3 5 2 6 11 3 14 -6 14 -8 -2 -21 -16 -13 -16 -13
5 -3 12 6 27 8 33 4 8 -4 7 0 0 15 -11 19 -10 20 15 11 22 -9 25 -8 16 3 -9
11 -7 13 10 13 11 -1 22 5 24 12 1 7 0 8 -3 2 -2 -5 -10 -10 -16 -10 -7 1 -2
9 11 19 12 11 22 24 22 31 0 6 5 8 12 4 7 -4 8 -3 4 4 -4 7 -2 12 6 12 7 0 2
7 -10 16 -12 8 -19 20 -16 26 4 7 2 8 -4 4 -7 -4 -12 -2 -12 5 0 8 -4 8 -15
-1 -8 -7 -15 -9 -15 -5 0 4 -7 2 -15 -5 -8 -7 -15 -8 -15 -2 0 13 -49 9 -80
-8 -24 -13 -24 -12 -10 5 14 17 13 17 -10 10 -51 -16 -100 -13 -100 7 0 7 5 6
13 -1 10 -8 14 -7 14 2 0 7 -11 13 -23 13 -12 0 -20 -4 -18 -8 3 -4 -1 -8 -9
-8 -8 0 -17 7 -21 15 -3 8 -12 12 -21 9 -8 -3 -12 -11 -8 -18 4 -6 -1 -5 -10
3 -9 7 -17 23 -18 35 0 11 -3 15 -6 9 -8 -22 -25 -14 -18 8 5 15 4 19 -4 15
-6 -4 -11 -15 -12 -24 0 -9 -7 -1 -15 18 -14 34 -14 34 -9 5 4 -28 4 -28 -7
-7 -6 12 -15 22 -20 22 -4 0 -8 5 -8 11 0 5 5 7 10 4 6 -3 10 -1 10 4 0 14
-17 14 -25 1 -3 -5 -12 -10 -18 -10 -7 0 -6 4 3 10 14 9 7 15 -14 11 -5 -1 -3
6 5 15 11 13 11 18 1 21 -6 3 -9 10 -6 15 4 7 2 8 -5 4 -9 -6 -9 -11 -1 -21 8
-9 6 -14 -5 -19 -9 -3 -13 -2 -10 4 3 5 1 19 -6 31 -9 17 -8 20 2 14 8 -6 10
-4 4 5 -4 7 -2 16 6 22 11 8 10 9 -4 4 -11 -3 -20 0 -23 9 -4 8 -11 12 -17 8
-6 -4 -7 -1 -3 6 5 7 15 10 25 7 12 -5 12 -3 -3 9 -10 8 -23 12 -27 9 -5 -3
-6 2 -3 10 3 9 10 13 15 10 5 -3 9 -1 9 5 0 5 -4 11 -10 13 -6 2 -4 14 4 30 9
16 11 30 5 33 -5 4 -9 11 -9 16 0 6 4 8 9 4 5 -3 13 0 17 6 4 8 3 9 -4 5 -7
-4 -12 -1 -12 9 0 10 5 13 12 9 7 -4 8 -3 4 4 -4 6 -14 8 -23 5 -11 -5 -14 -3
-9 6 5 7 18 10 30 7 20 -5 20 -5 2 9 -17 13 -18 15 -3 15 15 0 22 13 15 23 -2
2 4 12 12 22 14 17 14 17 -7 6 l-23 -12 22 37 c12 20 31 39 42 42 20 5 20 6 0
13 -16 7 -17 8 -1 8 9 1 17 7 17 14 0 8 4 7 11 -3 8 -12 9 -12 7 5 -3 24 9 45
25 45 7 0 6 -4 -3 -10 -8 -5 -10 -10 -4 -10 18 0 24 12 13 26 -7 9 -3 12 20
10 16 -1 29 3 28 8 -1 6 6 10 15 10 10 -1 14 4 11 13 -4 10 1 13 21 9 15 -3
24 -1 21 5 -4 5 -10 7 -14 5 -4 -3 -8 1 -8 9 0 11 5 12 21 3 20 -11 20 -10 6
8 -15 18 -14 18 15 0 l30 -19 -18 20 c-14 16 -15 23 -6 29 7 4 10 3 6 -3 -4
-6 0 -13 8 -17 8 -3 15 -1 15 4 0 6 5 10 11 10 5 0 7 -6 3 -12 -6 -10 -5 -10
8 -1 8 7 18 10 21 6 4 -3 7 4 7 16 0 23 0 23 18 4 9 -10 13 -13 8 -6 -8 13 3
18 33 14 7 -2 10 2 6 8 -4 7 0 8 11 4 13 -5 15 -3 9 7 -6 9 -4 11 4 6 9 -6 8
-13 -5 -27 -14 -16 -20 -17 -33 -6 -14 11 -14 10 -2 -6 9 -12 17 -14 26 -7 6
5 16 6 20 2 5 -4 4 -1 0 7 -6 11 -4 13 8 8 9 -3 19 -1 23 5 4 7 3 8 -4 4 -8
-5 -10 -2 -6 8 3 9 10 16 16 16 5 0 7 -4 3 -9 -3 -6 3 -15 14 -20 29 -16 38
-13 15 5 -18 15 -18 15 2 5 12 -6 25 -7 29 -3 4 4 5 -4 1 -18 -3 -14 -3 -19 0
-12 3 6 11 9 17 5 6 -4 8 0 5 9 -4 8 0 15 8 15 7 0 11 -4 8 -9 -3 -4 0 -8 6
-8 6 0 8 -5 4 -12 -4 -7 -3 -8 4 -4 7 4 12 2 12 -3 0 -6 5 -11 11 -11 5 0 8 4
4 9 -10 18 13 21 26 4 12 -14 12 -16 -1 -8 -12 7 -13 6 -3 -7 7 -8 9 -19 5
-24 -4 -4 2 -2 12 6 15 12 20 12 23 3 3 -7 9 -13 15 -13 6 0 5 6 -2 15 -7 9
-19 14 -27 11 -8 -3 -11 -1 -8 4 9 14 21 12 40 -6 10 -11 12 -20 6 -28 -6 -8
-1 -12 20 -13 15 -1 39 -9 52 -18 13 -8 27 -12 32 -8 4 5 2 -3 -5 -16 -10 -19
-10 -22 1 -16 9 6 10 3 5 -10 -5 -15 -4 -16 9 -5 9 7 18 10 22 6 3 -3 1 -6 -4
-6 -20 0 -7 -33 18 -48 22 -13 23 -13 5 1 -18 15 -18 16 2 14 11 0 18 -5 16
-9 -3 -5 2 -11 10 -14 14 -5 14 -8 0 -21 -10 -11 -12 -19 -4 -27 5 -7 6 -16 2
-20 -4 -4 0 -6 8 -4 10 2 15 -4 14 -20 -1 -17 2 -20 9 -13 18 18 31 13 16 -6
-8 -9 -9 -14 -3 -10 12 7 25 -14 29 -45 1 -14 -1 -15 -12 -7 -18 15 -17 4 2
-15 13 -13 13 -16 -1 -30 -14 -15 -14 -16 0 -16 9 0 16 5 16 11 0 5 5 7 11 3
7 -4 0 -14 -18 -25 -15 -10 -22 -19 -15 -19 10 0 10 -5 2 -22 -11 -22 -10 -22
4 -4 9 10 12 24 9 30 -4 6 1 5 10 -3 18 -15 23 -26 7 -16 -5 3 -10 -1 -10 -10
0 -10 5 -13 12 -9 7 4 8 3 4 -4 -4 -7 -15 -12 -24 -12 -15 0 -15 -2 -2 -10 10
-6 11 -10 3 -10 -7 0 -13 -5 -13 -11 0 -5 5 -7 10 -4 14 9 12 -8 -2 -24 -7 -8
-8 -11 -3 -8 6 3 12 -3 12 -14 1 -10 -3 -19 -8 -19 -6 0 -7 5 -4 10 3 6 1 10
-5 10 -7 0 -10 -6 -7 -14 3 -8 3 -17 -1 -19 -4 -2 -2 -2 5 -1 7 2 15 -2 19 -8
4 -6 3 -8 -4 -4 -6 3 -13 2 -17 -4 -3 -5 2 -10 12 -11 16 0 16 -1 -2 -8 -11
-5 -23 -7 -27 -4 -4 2 -5 -3 -1 -12 5 -14 8 -14 15 -3 7 9 8 7 3 -7 -4 -11 -8
-28 -11 -39 -2 -10 -11 -27 -20 -37 -14 -15 -14 -21 -4 -34 15 -18 0 -20 -19
-2 -11 10 -12 9 -7 -1 4 -7 3 -19 -4 -27 -8 -9 -8 -15 0 -20 6 -4 9 -1 8 6 -2
6 2 13 7 15 6 2 11 -4 11 -15 0 -11 -3 -18 -7 -15 -4 2 -13 -3 -20 -12 -10
-13 -10 -17 2 -25 10 -6 11 -9 1 -9 -7 0 -11 -4 -7 -9 3 -5 1 -12 -4 -16 -5
-3 -8 -14 -6 -24 2 -10 -3 -18 -10 -18 -8 0 -11 5 -8 11 4 6 -3 3 -15 -7 -11
-11 -19 -27 -17 -38 5 -27 -5 -50 -19 -42 -6 4 -5 -1 2 -10 17 -20 8 -37 -18
-32 -13 3 -17 -1 -13 -11 3 -7 10 -11 17 -7 6 3 1 -5 -12 -19 -12 -13 -21 -26
-20 -29 2 -2 -3 3 -11 11 -11 13 -13 11 -9 -12 3 -15 2 -25 -2 -23 -4 3 -13
-1 -19 -9 -7 -8 -20 -12 -29 -9 -10 2 -28 -5 -41 -16 -24 -21 -35 -25 -58 -22
-7 1 -13 -2 -13 -8 0 -5 6 -12 13 -14 8 -4 9 -6 0 -6 -6 -1 -20 7 -29 16 -17
17 -18 17 -11 1 7 -21 -3 -23 -23 -5 -8 6 -7 3 3 -9 19 -23 11 -40 -11 -22
-11 10 -17 9 -27 -5 -6 -9 -15 -14 -18 -10 -4 3 -11 -7 -17 -22 -8 -20 -14
-25 -23 -17 -17 15 -34 2 -32 -25 1 -15 -3 -19 -13 -15 -11 4 -13 1 -7 -7 6
-11 3 -11 -16 0 -21 11 -22 10 -12 -3 17 -19 4 -32 -15 -15 -13 10 -14 9 -3
-10 11 -21 8 -27 -11 -24 -8 1 -12 -15 -9 -31 0 -5 -4 -8 -10 -8 -6 0 -8 9 -4
21 6 19 5 20 -8 8 -17 -15 -17 -30 -2 -42 6 -5 0 -7 -13 -4 -18 4 -21 3 -12
-7 7 -10 6 -17 -7 -27 -16 -12 -17 -12 -6 2 10 13 10 16 -2 16 -7 0 -13 -5
-12 -11 1 -6 -4 -10 -11 -8 -8 1 -11 -2 -7 -8 3 -6 10 -8 15 -5 5 3 11 1 15
-5 3 -5 -1 -10 -10 -10 -9 0 -14 -4 -10 -9 3 -5 1 -12 -5 -16 -6 -4 -8 -11 -5
-16 3 -5 -1 -6 -9 -3 -11 4 -16 0 -16 -11 0 -9 4 -13 10 -10 5 3 10 1 10 -6 0
-6 -8 -9 -20 -6 -20 5 -33 -6 -36 -31 -1 -6 2 -10 7 -6 13 8 11 -10 -3 -24 -9
-9 -9 -15 1 -24 8 -8 11 -8 8 -2 -4 7 1 18 10 25 15 12 16 12 8 -1 -14 -23
-13 -53 3 -72 13 -15 13 -18 -1 -24 -15 -5 -14 -8 5 -24 12 -10 28 -15 35 -13
17 7 45 -16 36 -30 -4 -6 2 -8 15 -5 25 7 28 -1 10 -22 -11 -12 -10 -12 4 -1
12 9 18 10 18 2 0 -7 11 -9 30 -6 20 4 30 1 31 -7 0 -7 5 -2 10 11 6 16 14 21
25 17 12 -5 15 -2 10 9 -3 10 -2 13 5 10 5 -4 7 -16 4 -28 -5 -16 -4 -18 3 -8
5 7 14 11 20 7 6 -3 13 -2 17 4 4 6 11 8 16 4 5 -3 8 0 7 8 -2 7 2 12 9 11 7
-2 10 4 7 12 -5 11 -2 13 10 9 9 -3 13 -11 9 -17 -3 -6 -1 -7 6 -3 9 6 9 11 1
21 -9 10 -5 13 19 11 16 -1 29 0 28 3 -3 9 47 56 56 53 4 -1 3 8 -4 20 -9 18
-9 21 1 11 14 -13 40 -7 40 9 0 6 -6 5 -15 -2 -9 -8 -15 -8 -15 -2 0 11 39 28
55 23 5 -1 1 8 -10 20 l-20 22 25 -13 c24 -13 24 -12 10 5 -12 15 -12 17 -1
10 11 -6 13 -4 8 8 -3 9 1 21 11 29 10 8 13 8 9 1 -4 -6 -3 -15 3 -18 6 -4 10
-3 9 2 -3 20 2 34 11 28 6 -4 7 1 3 11 -4 12 -3 15 5 10 7 -4 12 -3 12 3 0 5
-6 12 -12 14 -10 4 -10 6 0 6 7 1 11 5 8 10 -3 5 1 14 9 21 7 6 11 19 8 28 -4
13 -3 14 5 3 7 -9 12 -10 16 -2 4 6 12 9 17 6 5 -3 6 2 2 11 -4 12 -3 15 5 10
8 -5 10 -2 6 8 -3 9 -11 13 -18 9 -7 -4 -7 -1 1 9 7 8 10 17 8 20 -3 3 6 4 20
3 14 -2 23 1 20 5 -3 5 -1 11 5 15 7 4 7 12 0 25 -7 13 -7 21 2 26 6 4 8 3 5
-3 -4 -6 1 -17 11 -24 15 -12 16 -12 6 1 -12 17 -12 30 0 48 7 11 4 12 -11 4
-14 -8 -24 -6 -42 7 -13 10 -21 23 -17 30 5 7 1 9 -10 4 -12 -4 -15 -3 -10 5
4 7 2 12 -3 12 -15 0 -14 -6 4 -33 14 -22 13 -23 -10 -23 -13 0 -21 4 -19 8 3
5 11 5 17 2 7 -4 -3 7 -20 24 -31 29 -44 50 -24 38 5 -4 11 -3 14 1 2 5 2 2 1
-4 -2 -7 1 -13 6 -13 9 0 14 15 11 33 -1 5 3 6 9 2 6 -3 7 -12 4 -18 -4 -7 -4
-9 1 -5 4 4 14 3 22 -4 10 -8 17 -8 26 1 9 10 8 11 -8 6 -20 -7 -20 -6 -1 9
16 13 22 13 34 3 13 -10 14 -9 4 10 -9 16 -9 24 0 29 6 4 9 3 6 -2 -3 -5 1
-15 9 -23 13 -12 14 -11 9 10 -7 23 -6 23 8 5 9 -11 19 -17 22 -13 4 4 2 12
-4 20 -9 10 -6 13 13 13 13 0 21 -4 19 -8 -3 -4 2 -8 11 -8 9 0 14 4 11 9 -4
5 2 8 11 6 10 -1 24 2 31 8 9 7 11 5 6 -9 -5 -18 -5 -18 10 0 9 11 16 16 16
10 0 -5 5 -2 10 6 7 11 10 11 10 2 0 -7 4 -11 9 -7 5 3 16 -2 24 -10 18 -18
31 -20 21 -3 -5 7 -3 8 6 3 10 -6 10 -11 -3 -20 -9 -7 -14 -15 -10 -18 3 -4
12 -2 19 4 10 8 11 6 1 -15 -7 -14 -15 -26 -19 -26 -5 0 -8 -5 -8 -11 0 -5 5
-7 12 -3 7 4 8 3 4 -5 -6 -9 -11 -9 -22 0 -12 10 -13 9 -8 -6 6 -14 4 -16 -6
-10 -9 5 -11 4 -6 -4 4 -6 12 -9 17 -6 5 4 9 1 9 -6 0 -6 -8 -9 -19 -6 -20 5
-22 -7 -7 -32 6 -9 5 -12 -1 -8 -13 8 -22 -12 -16 -31 4 -10 8 -10 21 0 15 12
16 11 3 -4 -7 -10 -18 -15 -24 -11 -7 4 -8 0 -3 -12 5 -14 4 -16 -7 -7 -11 9
-13 6 -9 -20 3 -20 1 -29 -6 -24 -6 3 -14 1 -18 -5 -4 -7 -3 -9 4 -5 6 3 13 2
17 -4 3 -5 -1 -10 -10 -10 -13 0 -14 -4 -4 -21 7 -13 7 -19 1 -15 -15 9 -27
-14 -23 -43 2 -17 -1 -21 -11 -15 -9 5 -9 2 2 -11 9 -11 10 -16 3 -11 -7 4
-13 2 -13 -3 0 -6 6 -11 13 -12 6 0 3 -4 -8 -8 -12 -5 -23 -4 -28 3 -5 6 -6 3
-3 -8 4 -11 2 -22 -4 -26 -7 -4 -5 -12 6 -21 11 -9 15 -9 10 -2 -4 7 -3 20 2
29 6 11 11 13 16 5 4 -6 2 -11 -4 -11 -7 0 -9 -8 -5 -20 7 -23 2 -25 -28 -8
-20 10 -21 10 -8 -5 11 -14 11 -18 -3 -23 -15 -6 -15 -8 1 -21 10 -8 12 -12 6
-8 -17 8 -17 -7 0 -24 10 -11 9 -12 -2 -6 -11 6 -13 4 -8 -9 4 -10 3 -15 -3
-11 -6 3 -10 1 -10 -5 0 -6 -4 -8 -10 -5 -5 3 -10 1 -10 -4 0 -6 5 -11 10 -11
6 0 10 -5 10 -12 0 -6 -3 -8 -7 -5 -3 4 -12 -1 -19 -11 -16 -21 -17 -32 -4
-32 6 0 9 5 8 11 -2 6 3 13 10 14 7 2 8 1 2 -2 -7 -3 -7 -10 2 -21 10 -12 10
-14 1 -8 -8 4 -13 2 -13 -4 0 -7 -6 -10 -13 -7 -7 3 -13 -3 -14 -14 -1 -12 3
-16 15 -13 14 5 14 3 -2 -10 -10 -8 -22 -13 -27 -11 -10 7 -5 -22 6 -32 4 -4
5 -2 0 6 -5 9 -4 12 3 7 9 -5 9 -12 0 -26 -7 -10 -16 -16 -20 -14 -5 3 -5 10
-2 16 4 7 2 8 -4 4 -9 -5 -8 -15 3 -37 9 -16 13 -30 10 -30 -20 -5 -31 -3 -37
6 -5 6 -8 6 -8 -2 0 -7 8 -17 18 -22 16 -10 16 -10 0 -11 -9 0 -20 -5 -24 -12
-4 -6 -3 -8 4 -4 7 4 10 -1 9 -14 -1 -11 -5 -20 -9 -20 -5 0 -7 -15 -6 -32 2
-26 -1 -33 -14 -32 -10 1 -16 -2 -13 -6 3 -4 -2 -13 -9 -20 -17 -13 -13 -41 9
-79 14 -23 13 -23 -10 4 -21 25 -26 26 -23 10 2 -11 10 -27 18 -35 9 -8 10
-11 3 -6 -9 6 -18 5 -26 -3 -9 -10 -8 -11 7 -5 12 4 17 4 13 -2 -3 -6 15 -11
43 -11 27 -1 52 2 55 7 3 5 -4 7 -15 5 -11 -2 -20 1 -20 6 0 6 -5 7 -12 3 -6
-4 -8 -3 -5 4 4 5 17 8 29 4 17 -4 20 -2 15 11 -4 11 -2 14 8 10 8 -3 13 -9
10 -13 -7 -11 22 -6 32 5 4 4 3 5 -3 2 -7 -4 -14 -1 -17 7 -4 9 0 13 11 12 9
-2 25 8 35 21 10 12 24 23 30 23 7 0 6 -4 -3 -10 -12 -7 -10 -9 7 -7 18 1 20
4 11 22 -10 17 -9 18 4 7 13 -10 17 -9 23 5 5 10 7 22 6 27 -1 5 5 6 14 2 10
-3 14 -2 10 5 -4 6 -13 8 -21 5 -7 -3 -16 0 -20 6 -5 7 -2 8 6 3 10 -6 12 -4
6 10 -5 15 -4 16 8 6 10 -8 16 -9 21 -1 3 5 3 10 -2 10 -4 0 -1 5 7 11 13 9
12 10 -2 5 -10 -3 -18 -1 -18 4 0 6 7 10 16 10 8 0 12 5 9 10 -4 6 -12 7 -18
4 -9 -5 -9 -4 0 6 6 7 9 20 7 29 -3 9 4 0 15 -19 21 -36 29 -34 10 2 -10 18
-9 20 7 14 18 -6 18 -5 0 9 -17 13 -18 17 -6 28 10 9 11 9 6 0 -5 -9 -2 -11
10 -6 14 5 13 8 -7 20 -23 14 -24 14 -2 8 25 -7 32 9 8 19 -8 3 -15 11 -14 18
0 10 2 10 6 1 8 -20 18 -15 20 10 5 46 10 61 24 65 11 3 11 1 -1 -7 -11 -8
-11 -11 -2 -11 9 0 8 -7 -4 -27 -15 -28 -15 -28 2 -4 22 29 28 61 11 61 -9 0
-9 2 0 8 7 4 12 19 11 32 -2 44 1 48 25 42 21 -5 21 -5 5 12 -10 10 -18 23
-18 29 0 7 4 6 10 -3 5 -8 12 -11 16 -7 4 3 1 14 -7 23 -13 16 -12 16 8 6 15
-8 24 -9 28 -2 4 6 1 9 -6 8 -6 -2 -14 3 -17 11 -3 10 0 11 9 5 11 -6 10 -3
-1 11 -12 15 -12 17 -1 10 11 -6 13 -4 8 8 -6 16 3 22 26 18 5 -1 5 3 2 9 -4
6 -14 9 -24 6 -14 -5 -13 -4 2 8 9 7 17 21 17 30 0 9 5 16 11 16 5 0 7 -5 3
-12 -5 -7 -3 -8 5 -3 9 5 9 11 3 17 -12 12 -4 40 9 32 5 -3 6 -11 3 -17 -4 -7
-3 -8 1 -4 12 10 16 39 5 32 -5 -3 -11 -1 -14 4 -3 5 1 11 9 15 8 3 15 14 15
25 0 11 4 22 10 26 5 3 7 12 4 19 -3 8 -1 17 5 21 6 3 11 -1 11 -9 0 -9 5 -16
10 -16 7 0 7 7 0 21 -7 12 -17 18 -27 15 -11 -5 -10 1 5 27 11 17 17 39 15 47
-4 13 -3 13 6 0 5 -8 7 -18 5 -22 -3 -4 3 -5 12 -1 12 4 14 8 6 11 -10 3 -10
7 -2 17 8 10 8 15 -1 21 -8 5 -9 3 -4 -6 5 -9 4 -11 -4 -6 -8 6 -9 12 -2 20 6
7 10 15 8 17 -1 2 4 -2 11 -10 15 -18 16 -7 2 19 -9 16 -7 18 18 15 26 -4 26
-4 5 7 -30 14 -29 24 4 40 18 9 27 22 29 43 2 22 1 26 -6 15 -7 -11 -10 -11
-10 -2 0 7 7 15 15 18 8 4 12 11 9 16 -4 6 2 8 15 3 17 -5 20 -3 14 12 -6 16
-5 17 12 3 17 -14 18 -14 7 7 -13 23 1 43 14 22 5 -8 3 -9 -6 -4 -9 5 -11 4
-6 -4 6 -8 12 -9 20 -2 7 6 16 7 20 3 4 -4 6 0 4 8 -1 8 3 14 10 12 10 -2 10
2 1 20 -12 22 -11 22 6 8 17 -13 18 -13 13 1 -4 11 -1 16 9 15 9 0 18 6 20 14
4 13 3 13 -6 0 -8 -11 -11 -12 -11 -2 0 8 9 16 20 19 11 3 17 9 14 14 -3 5 0
9 6 9 7 0 10 7 6 15 -3 8 -2 14 2 14 14 -2 52 14 52 22 0 4 -9 6 -20 4 -12 -2
-18 0 -15 6 4 5 10 7 15 4 5 -3 11 -1 15 5 3 5 2 10 -3 10 -6 0 -13 7 -16 16
-5 14 -4 15 9 4 9 -7 18 -10 22 -6 3 3 1 6 -6 6 -7 0 -10 4 -7 8 2 4 -7 9 -20
10 -14 1 -23 -2 -19 -7 3 -5 1 -13 -5 -16 -6 -4 -9 -1 -8 6 2 7 -4 13 -12 14
-8 1 -14 7 -12 14 2 9 -3 11 -14 7 -14 -5 -15 -4 -4 9 14 17 34 10 27 -9 -3
-7 0 -13 7 -13 6 0 12 8 12 18 0 10 -4 16 -7 13 -4 -2 -11 1 -14 7 -4 5 -13 8
-21 5 -7 -3 -16 -1 -19 3 -3 5 9 8 25 7 20 -1 27 1 20 8 -5 5 -10 17 -10 26 0
13 1 13 10 0 7 -11 10 -8 10 16 0 17 9 43 20 56 10 14 16 29 12 33 -4 5 -1 5
6 1 7 -4 10 -11 7 -16 -3 -5 -1 -11 3 -14 5 -3 8 10 7 29 -1 19 3 35 7 35 5 0
7 4 4 9 -3 5 1 14 9 21 8 7 15 19 15 26 0 13 13 19 35 14 6 -1 5 4 -2 11 -17
17 -5 43 13 28 12 -10 13 -9 8 5 -3 9 -1 16 5 16 6 0 11 5 11 11 0 6 -5 7 -12
2 -19 -11 -39 -13 -32 -2 3 5 9 7 13 5 4 -3 13 4 21 14 8 10 17 17 21 14 4 -2
11 1 15 7 4 7 3 9 -3 6 -6 -4 -16 0 -23 8 -11 13 -10 14 5 9 14 -6 16 -4 10 7
-7 11 -5 11 10 -1 17 -14 18 -14 6 8 -12 22 -11 23 11 17 21 -7 22 -7 8 10 -9
11 -10 16 -2 11 6 -4 12 -2 12 3 0 6 -10 11 -22 12 -21 0 -21 1 -4 8 27 10 2
19 -43 16 -19 -2 -28 1 -22 5 10 5 9 9 -3 13 -9 4 -15 1 -13 -6 1 -7 -6 -11
-16 -11 -13 2 -16 -3 -12 -20 2 -11 2 -15 -1 -8 -3 6 -11 9 -16 6 -7 -5 -8 -2
-3 5 13 23 -32 -7 -49 -31 -9 -12 -16 -18 -16 -12 0 5 5 15 12 22 9 9 9 12 0
12 -7 0 -16 -8 -19 -17 -6 -15 -7 -15 -14 3 -7 17 -8 16 -8 -6 -1 -19 -3 -22
-11 -10 -8 12 -10 12 -16 -3 -3 -9 -9 -15 -14 -12 -4 2 -16 -3 -26 -11 -10 -9
-14 -13 -8 -10 6 3 11 -1 11 -9 0 -11 -5 -12 -20 -3 -13 7 -17 7 -13 0 3 -6
-3 -17 -15 -25 -13 -10 -16 -16 -8 -19 7 -2 13 -11 15 -20 1 -10 -3 -15 -11
-12 -14 6 -15 -11 -1 -36 4 -8 -1 -5 -11 6 l-20 22 -13 -22 c-12 -19 -12 -20
3 -7 11 9 17 10 17 2 0 -6 0 -14 0 -18 0 -5 -4 -8 -9 -8 -5 0 -13 -3 -17 -8
-4 -4 -3 -7 3 -7 6 0 14 -8 18 -17 5 -15 4 -16 -6 -5 -21 20 -29 14 -19 -14 7
-17 7 -23 0 -19 -6 3 -13 -1 -16 -9 -3 -9 -10 -13 -15 -10 -5 3 -6 -2 -3 -10
3 -9 11 -13 18 -9 6 3 3 -3 -7 -15 -11 -11 -16 -25 -12 -31 3 -6 0 -9 -8 -5
-8 3 -20 -2 -27 -11 -7 -8 -9 -15 -5 -15 4 0 1 -7 -6 -17 -8 -9 -13 -19 -11
-22 1 -3 -2 -6 -7 -6 -5 0 -13 -4 -18 -9 -4 -5 -3 -6 3 -3 7 4 18 -1 25 -10
10 -12 10 -14 2 -9 -12 7 -18 -17 -14 -52 2 -10 -4 -12 -21 -6 -20 6 -21 5 -9
-10 12 -14 11 -16 -3 -16 -10 0 -24 -7 -32 -15 -9 -8 -12 -15 -7 -15 5 0 14 5
20 11 8 8 13 7 18 -2 5 -7 4 -10 -2 -6 -6 4 -17 0 -24 -9 -12 -14 -14 -14 -25
0 -11 15 -12 15 -18 1 -3 -9 -2 -13 4 -10 6 3 10 1 10 -4 0 -6 -9 -11 -21 -11
-11 0 -18 -4 -15 -9 10 -15 -25 -6 -35 10 -8 10 -9 8 -4 -9 6 -20 4 -21 -19
-12 -21 8 -24 7 -19 -8 6 -15 5 -16 -12 -2 -11 9 -16 10 -11 3 4 -7 3 -13 -1
-13 -5 0 -14 9 -21 21 -12 19 -11 20 10 14 17 -5 19 -4 9 4 -13 8 -13 12 0 27
9 11 9 15 2 10 -8 -4 -13 -2 -13 4 0 6 -5 8 -12 4 -7 -5 -8 -3 -4 5 5 7 14 10
22 7 8 -3 14 -1 14 3 0 5 -6 12 -12 14 -7 3 -3 6 9 6 17 1 21 5 16 18 -4 11
-3 14 5 9 8 -5 10 -2 6 8 -4 10 -1 16 7 16 12 0 12 2 0 9 -11 7 -9 10 8 16 21
6 29 25 11 25 -5 0 -10 -4 -10 -10 0 -5 -5 -10 -12 -10 -9 0 -9 3 0 12 15 15
16 31 0 22 -7 -4 -8 -3 -4 5 4 6 12 9 17 6 5 -4 10 -1 10 4 1 6 2 16 3 23 0 6
8 13 16 15 13 4 13 3 0 -6 -8 -6 -11 -11 -7 -11 4 0 3 -9 -3 -20 -6 -11 -8
-20 -6 -20 3 0 12 12 19 28 16 30 12 56 -6 46 -7 -4 -7 -1 1 7 11 12 14 12 22
-1 6 -9 10 -10 10 -3 0 6 -4 14 -9 17 -5 4 -8 14 -6 24 2 9 4 20 4 24 1 5 6 7
12 5 6 -1 13 8 15 21 2 12 -1 22 -6 22 -6 0 -10 5 -10 10 0 6 8 10 18 8 11 -2
16 3 14 14 -2 13 2 16 15 12 15 -5 15 -4 3 5 -11 7 -20 5 -34 -7 -19 -17 -19
-17 -1 11 9 15 13 27 9 27 -5 0 -4 4 2 8 7 4 14 32 17 62 3 30 3 49 0 43 -3
-7 -9 -13 -14 -13 -6 0 -6 8 1 19 12 24 13 34 2 27 -5 -3 -9 1 -9 9 0 8 5 11
10 8 7 -4 7 1 2 13 -4 10 -10 34 -13 52 -4 30 -12 37 -36 33 -5 -1 -5 4 1 11
18 22 20 61 3 65 -11 3 -11 2 -3 -4 7 -5 9 -14 5 -20 -5 -7 -11 -3 -19 13 -6
13 -7 22 -2 18 5 -3 9 2 9 11 0 9 -4 14 -9 10 -5 -3 -12 -1 -16 5 -3 5 2 10
12 11 16 0 16 1 -2 8 -11 5 -24 6 -29 3 -5 -3 -6 1 -1 8 4 7 2 16 -6 22 -11 8
-10 9 4 4 9 -3 17 -1 17 4 0 6 -5 10 -11 10 -5 0 -7 6 -3 13 6 10 4 10 -7 0
-16 -16 -29 -17 -29 -2 0 5 4 8 9 5 5 -3 11 0 14 7 3 8 -1 14 -9 15 -8 1 -21
3 -29 4 -8 1 -12 5 -9 9 2 4 -4 13 -13 19 -17 11 -17 11 0 6 9 -3 17 -1 17 4
0 9 -14 14 -32 11 -5 0 -8 8 -8 20 0 13 4 18 12 13 7 -5 8 -3 3 5 -5 9 -11 9
-17 3 -7 -7 -18 -3 -33 11 -12 12 -31 28 -41 35 -11 7 -14 10 -7 7 6 -3 14 -2
17 3 2 4 -4 9 -15 9 -10 1 -19 -3 -19 -8 0 -6 -5 -7 -11 -3 -8 4 -3 12 12 21
22 13 22 13 2 8 -12 -3 -25 -1 -29 6 -5 8 -3 9 6 4 8 -5 11 -4 7 2 -3 5 -19 8
-36 7 -30 -2 -37 12 -16 29 6 4 -3 5 -20 1 -29 -6 -29 -6 -10 10 16 13 17 15
2 10 -9 -3 -23 -1 -31 5 -7 6 -16 8 -20 4 -10 -11 -37 -12 -30 -2 3 5 9 7 13
5 4 -3 8 1 8 8 0 11 -4 12 -20 3 -15 -9 -21 -9 -24 1 -3 6 -10 9 -16 5 -24
-15 -45 -12 -50 6 -3 14 -1 18 9 14 8 -3 11 -9 8 -14 -3 -5 2 -6 10 -3 8 3 17
11 19 18 6 16 -377 18 -393 2z m100 -6 c12 -7 10 -9 -8 -7 -12 0 -22 5 -22 9
0 11 12 10 30 -2z m190 0 c0 -5 -5 -10 -11 -10 -5 0 -7 5 -4 10 3 6 8 10 11
10 2 0 4 -4 4 -10z m198 -65 c-3 -3 -9 2 -12 12 -6 14 -5 15 5 6 7 -7 10 -15
7 -18z m-428 -141 c0 -8 -19 -13 -24 -6 -3 5 1 9 9 9 8 0 15 -2 15 -3z m-150
-68 c0 -2 -7 -9 -15 -16 -13 -11 -14 -10 -9 4 5 14 24 23 24 12z m-360 -171
c11 -13 10 -14 -4 -9 -9 3 -16 10 -16 15 0 13 6 11 20 -6z m1091 -27 c22 -25
22 -25 7 -34 -7 -4 -10 -3 -5 1 4 5 -3 19 -15 32 -12 13 -18 23 -13 23 4 0 16
-10 26 -22z m-906 -38 c-3 -5 -11 -10 -16 -10 -6 0 -7 5 -4 10 3 6 11 10 16
10 6 0 7 -4 4 -10z m-37 -140 c-7 -10 -14 -18 -15 -16 -6 6 9 36 18 36 5 0 4
-9 -3 -20z m1207 -40 c3 -6 -1 -7 -9 -4 -18 7 -21 14 -7 14 6 0 13 -4 16 -10z
m275 -30 c-8 -5 -19 -10 -25 -10 -5 0 -3 5 5 10 8 5 20 10 25 10 6 0 3 -5 -5
-10z m-1465 -60 c3 -5 1 -10 -4 -10 -6 0 -11 5 -11 10 0 6 2 10 4 10 3 0 8 -4
11 -10z m1162 -95 c0 -8 -4 -12 -9 -9 -5 3 -6 10 -3 15 9 13 12 11 12 -6z
m-235 -127 c-7 -7 -12 -8 -12 -2 0 14 12 26 19 19 2 -3 -1 -11 -7 -17z m393
-5 c-2 -10 -4 -19 -5 -20 -3 -4 -7 -20 -9 -33 0 -5 -6 -10 -12 -10 -8 0 -8 5
1 15 7 8 9 15 6 15 -4 0 -4 6 1 13 4 6 8 15 9 20 3 14 4 17 8 17 2 0 3 -8 1
-17z m-904 -16 c-10 -9 -11 -8 -5 6 3 10 9 15 12 12 3 -3 0 -11 -7 -18z m44
13 c-3 -5 -12 -10 -18 -10 -7 0 -6 4 3 10 19 12 23 12 15 0z m91 -11 c9 -10
15 -19 13 -20 -2 0 -12 -2 -22 -4 -14 -3 -16 0 -7 10 14 17 -6 31 -24 16 -9
-8 -13 -7 -13 2 0 20 33 18 53 -4z m-161 -108 c3 -5 2 -12 -3 -15 -5 -3 -9 1
-9 9 0 17 3 19 12 6z m456 -85 c-6 -7 -7 -17 -3 -21 4 -5 2 -5 -5 -2 -9 6 -10
18 -4 45 1 2 6 0 11 -3 8 -5 8 -11 1 -19z m184 4 c-3 -5 -12 -10 -18 -10 -7 0
-6 4 3 10 19 12 23 12 15 0z m455 -115 c-7 -9 -15 -13 -19 -10 -3 3 1 10 9 15
21 14 24 12 10 -5z m-630 -115 c0 -5 -4 -10 -10 -10 -5 0 -10 5 -10 10 0 6 5
10 10 10 6 0 10 -4 10 -10z m-33 -22 c-3 -8 -6 -5 -6 6 -1 11 2 17 5 13 3 -3
4 -12 1 -19z m554 -1 c-13 -13 -26 -3 -16 12 3 6 11 8 17 5 6 -4 6 -10 -1 -17z
m-629 -35 c7 -11 18 -21 25 -23 16 -6 -9 -39 -33 -43 -11 -2 -26 -6 -34 -8
-10 -2 -14 4 -13 16 1 12 -2 15 -9 8 -7 -7 -6 -17 1 -30 14 -26 14 -32 0 -32
-5 0 -8 4 -5 9 3 5 -2 15 -12 22 -13 10 -14 10 -6 0 13 -14 7 -54 -7 -45 -5 3
-7 10 -3 15 3 6 -2 19 -11 29 -20 22 -14 50 10 50 9 0 14 4 11 8 -2 4 5 9 16
9 20 2 20 1 2 -12 -11 -8 -25 -15 -31 -15 -7 0 -13 -5 -13 -11 0 -13 60 21 67
39 3 6 9 12 15 12 5 0 6 -4 3 -10 -3 -5 -1 -10 4 -10 15 0 14 27 -1 33 -10 4
-10 6 -1 6 6 1 18 -7 25 -17z m-257 -40 c-3 -3 -11 0 -18 7 -9 10 -8 11 6 5
10 -3 15 -9 12 -12z m-61 -44 c-9 -14 -23 2 -17 18 4 12 8 13 14 3 4 -7 5 -17
3 -21z m161 22 c-3 -5 -1 -10 4 -10 6 0 11 5 11 11 0 7 9 0 21 -15 20 -25 20
-28 4 -45 -10 -12 -12 -21 -6 -25 12 -8 3 -36 -11 -36 -6 0 -5 8 3 18 12 15
11 15 -7 -1 -16 -15 -17 -19 -4 -27 11 -7 11 -10 2 -10 -7 0 -10 -6 -7 -12 4
-7 -1 -4 -11 7 -15 19 -16 19 -10 1 7 -21 -20 -70 -33 -61 -5 2 -14 -2 -20 -9
-9 -11 -9 -16 0 -22 8 -4 9 -3 5 4 -5 8 -1 10 9 5 13 -4 14 -8 4 -14 -7 -4
-17 -5 -21 -3 -4 3 -8 -1 -8 -9 0 -8 -9 -22 -20 -32 -11 -10 -17 -22 -14 -27
3 -4 2 -8 -3 -7 -16 4 -43 -13 -36 -24 3 -6 1 -7 -6 -3 -6 4 -8 12 -5 18 4 7
2 8 -4 4 -7 -4 -12 -15 -12 -24 -1 -15 -3 -14 -16 3 -15 19 -15 19 -10 -8 3
-15 1 -25 -3 -22 -5 2 -14 -2 -21 -10 -7 -8 -18 -15 -24 -15 -7 0 -7 3 -1 8
11 7 19 42 11 42 -3 0 -13 -12 -21 -27 -9 -16 -14 -20 -11 -9 5 13 2 17 -9 13
-18 -7 -30 9 -14 19 8 5 9 3 4 -6 -5 -9 -4 -11 4 -6 9 6 9 11 1 21 -6 7 -10
17 -9 21 4 22 -2 35 -13 29 -7 -4 -4 0 6 9 10 8 22 13 26 11 4 -2 5 6 3 19 -3
13 0 27 6 30 7 5 9 0 5 -11 -5 -15 -4 -16 5 -3 6 8 8 24 5 35 l-6 20 16 -20
c15 -19 16 -19 9 -1 -4 13 -3 17 5 12 7 -4 10 1 7 14 -3 18 -1 19 18 8 20 -10
21 -10 8 5 -12 15 -4 24 14 15 2 -2 12 7 20 20 9 12 20 20 25 17 4 -3 6 3 3
14 -3 10 1 22 8 27 9 5 11 2 6 -9 -3 -9 -2 -19 4 -22 5 -4 9 -3 8 2 -4 21 2
33 17 33 10 0 14 6 11 14 -4 11 1 13 20 10 23 -4 25 -3 13 11 -11 13 -10 14 5
8 15 -5 17 -3 12 11 -4 9 -3 15 2 11 5 -3 12 -1 16 5 3 5 8 10 11 10 3 0 2 -4
-1 -10z m279 -49 c3 -5 -2 -15 -12 -22 -15 -12 -16 -12 -5 2 7 9 10 19 6 22
-3 4 -4 7 0 7 3 0 8 -4 11 -9z m-224 -21 c0 -5 -5 -10 -11 -10 -5 0 -7 5 -4
10 3 6 8 10 11 10 2 0 4 -4 4 -10z m-200 -35 c0 -2 -10 -9 -22 -15 -22 -11
-22 -10 -4 4 21 17 26 19 26 11z m814 -70 c-8 -12 -11 -25 -7 -30 5 -4 2 -5
-5 -1 -9 6 -10 12 0 29 7 12 11 29 10 37 -2 13 -1 13 7 1 6 -10 5 -21 -5 -36z
m-224 -45 c0 -5 -2 -10 -4 -10 -3 0 -8 5 -11 10 -3 6 -1 10 4 10 6 0 11 -4 11
-10z m-835 -98 c-6 -7 -34 11 -29 19 3 5 11 3 19 -4 7 -6 12 -13 10 -15z m90
-22 c3 -5 1 -10 -4 -10 -6 0 -11 5 -11 10 0 6 2 10 4 10 3 0 8 -4 11 -10z
m689 -48 c3 -5 -1 -9 -9 -9 -8 0 -12 4 -9 9 3 4 7 8 9 8 2 0 6 -4 9 -8z m-401
-63 c-8 -8 -13 -7 -18 2 -5 8 -4 10 3 5 7 -4 12 -2 12 5 0 7 3 9 7 6 4 -4 2
-12 -4 -18z m-348 -8 c10 -17 -12 -21 -25 -6 -10 12 -10 15 3 15 9 0 18 -4 22
-9z m249 -52 c-9 -10 -21 -16 -26 -13 -11 7 -1 19 15 19 7 1 11 7 9 14 -1 7 2
9 8 6 8 -5 6 -13 -6 -26z m-124 -19 c0 -7 -13 -7 -38 -1 -2 1 -1 5 3 11 6 10
35 2 35 -10z m660 -344 c0 -3 -4 -8 -10 -11 -5 -3 -10 -1 -10 4 0 6 5 11 10
11 6 0 10 -2 10 -4z m-214 -21 c-8 -8 -18 -15 -22 -15 -3 0 -1 7 6 15 7 8 17
15 22 15 5 0 3 -7 -6 -15z"/>
<path d="M917 1765 c18 -13 33 -11 33 4 0 5 -11 9 -25 9 -23 0 -24 -2 -8 -13z"/>
<path d="M755 1579 c-4 -6 -5 -12 -2 -15 2 -3 7 2 10 11 7 17 1 20 -8 4z"/>
<path d="M684 1498 c6 -20 -10 -34 -18 -16 -3 7 -4 4 -3 -7 1 -11 -4 -20 -10
-20 -7 0 -13 -4 -14 -8 -2 -19 9 -15 34 11 20 21 24 31 16 42 -9 13 -10 12 -5
-2z"/>
<path d="M556 1383 c-6 -14 -5 -15 5 -6 7 7 10 15 7 18 -3 3 -9 -2 -12 -12z"/>
<path d="M895 3310 c3 -5 8 -10 11 -10 2 0 4 5 4 10 0 6 -5 10 -11 10 -5 0 -7
-4 -4 -10z"/>
<path d="M1235 3051 c-3 -5 -2 -12 3 -15 5 -3 9 1 9 9 0 17 -3 19 -12 6z"/>
<path d="M950 3006 c0 -2 7 -7 16 -10 8 -3 12 -2 9 4 -6 10 -25 14 -25 6z"/>
<path d="M605 2990 c3 -5 8 -10 11 -10 2 0 4 5 4 10 0 6 -5 10 -11 10 -5 0 -7
-4 -4 -10z"/>
<path d="M510 2975 c-7 -8 -5 -12 5 -12 8 0 11 5 8 10 -3 6 -1 7 6 3 6 -4 9
-12 5 -17 -3 -5 -9 -7 -14 -4 -5 3 -13 -2 -18 -11 -8 -15 -10 -15 -15 0 -4 10
-3 15 3 11 6 -4 7 1 3 11 -4 11 -8 13 -11 6 -2 -7 -7 -10 -12 -7 -4 3 -7 -3
-6 -12 0 -9 -5 -18 -12 -20 -8 -3 -10 2 -6 14 5 14 4 15 -4 3 -8 -10 -8 -18 0
-27 8 -10 7 -12 -6 -7 -9 3 -16 11 -16 17 0 6 -3 7 -6 4 -4 -4 -1 -14 7 -23
13 -16 12 -16 -8 -6 -17 9 -22 9 -27 -4 -3 -9 -4 -19 -1 -24 3 -4 -3 -14 -12
-21 -12 -10 -14 -10 -9 -1 4 6 3 12 -2 12 -6 0 -13 -7 -16 -16 -3 -8 -11 -12
-17 -8 -8 5 -8 1 0 -14 8 -15 8 -23 -1 -28 -6 -4 -8 -3 -4 4 3 6 2 13 -3 17
-6 3 -8 -4 -6 -16 3 -15 0 -19 -10 -15 -26 10 -16 -2 20 -24 19 -12 41 -19 48
-17 7 3 5 6 -5 6 -10 1 -18 6 -18 11 0 6 6 10 13 9 6 -1 20 -1 30 0 15 1 16 3
5 15 -15 16 -32 11 -22 -6 4 -7 2 -8 -5 -4 -9 6 -9 11 0 22 6 7 15 11 21 8 5
-3 15 0 23 6 8 7 15 9 15 4 0 -5 5 -2 10 6 8 12 10 12 10 1 0 -11 3 -11 15 -1
8 7 15 11 16 9 4 -20 7 -36 10 -48 2 -7 -3 -16 -11 -18 -13 -4 -13 -3 0 6 11
8 12 11 2 11 -7 0 -11 4 -7 9 3 5 1 12 -4 15 -5 4 -8 -2 -7 -11 2 -10 -4 -24
-13 -31 -14 -10 -13 -11 4 -5 18 6 18 5 6 -10 -11 -14 -17 -15 -30 -5 -14 11
-14 11 -4 -3 7 -9 10 -19 6 -22 -3 -4 -1 -7 5 -7 7 0 12 5 12 10 0 6 8 2 18
-7 12 -13 14 -21 7 -29 -11 -13 -28 3 -19 18 3 4 -2 5 -11 1 -12 -4 -13 -8 -4
-13 6 -5 9 -15 6 -23 -3 -8 1 -24 9 -36 18 -25 7 -29 -12 -3 -12 16 -13 16
-14 0 0 -9 4 -19 9 -22 8 -5 8 -27 1 -46 -1 -3 -2 -9 -1 -13 1 -5 -3 -6 -9 -2
-5 3 -10 3 -11 -2 -6 -44 -5 -73 3 -73 5 0 6 -6 2 -12 -4 -7 -4 -10 1 -6 11
11 36 -12 28 -25 -3 -6 -1 -7 6 -3 9 6 9 11 1 21 -9 11 -6 13 15 11 15 -2 31
-9 37 -17 8 -11 9 -10 4 3 -8 25 8 30 22 7 7 -11 8 -19 2 -19 -5 0 -10 -5 -10
-11 0 -8 4 -8 14 0 17 14 37 11 53 -9 11 -13 12 -12 6 4 -4 14 -3 17 6 12 7
-4 10 -3 9 5 -2 6 3 14 10 16 8 3 10 -1 5 -14 -3 -10 -3 -15 1 -12 4 4 9 16
11 28 3 18 0 21 -14 16 -13 -4 -20 0 -24 15 -3 11 -1 18 3 15 5 -3 11 -1 15 5
3 5 1 10 -5 10 -6 0 -8 5 -5 10 3 6 2 10 -4 10 -5 0 -12 -6 -14 -12 -4 -10 -6
-10 -6 -1 -1 6 4 15 9 18 8 5 7 11 -1 21 -8 10 -8 14 0 14 6 0 11 -4 11 -10 0
-5 4 -10 8 -10 16 0 9 27 -10 39 -11 7 -18 7 -18 1 0 -5 -4 -10 -10 -10 -5 0
-7 7 -3 16 3 8 12 13 19 10 7 -3 18 3 23 12 6 9 11 12 11 7 0 -6 -5 -16 -12
-23 -9 -9 -9 -12 0 -12 6 0 15 8 21 18 9 16 10 15 10 -3 1 -46 5 -56 18 -51
10 4 11 1 3 -14 -13 -24 -13 -41 1 -18 5 9 16 15 24 12 12 -5 12 -1 2 19 -6
14 -16 25 -21 24 -5 -1 -11 5 -13 13 -4 12 -3 12 5 2 5 -8 13 -13 18 -12 4 1
11 -6 14 -15 5 -14 7 -14 25 0 11 9 15 14 8 10 -7 -3 -21 3 -33 15 -24 24 -14
27 13 3 18 -17 19 -17 16 22 -3 27 0 40 9 41 6 1 16 2 21 3 14 2 43 51 30 51
-6 0 -13 -9 -16 -20 -3 -11 -9 -20 -14 -20 -13 0 -11 14 3 28 9 9 9 12 -1 12
-7 0 -11 6 -8 14 4 10 1 13 -9 9 -11 -4 -12 -9 -5 -16 14 -14 14 -30 1 -22 -6
3 -7 -1 -4 -9 3 -9 1 -16 -6 -16 -6 0 -9 4 -6 9 4 5 0 12 -6 14 -10 4 -10 6 0
6 6 1 12 6 12 12 0 6 -7 9 -15 5 -13 -4 -13 -2 -5 14 8 15 6 21 -10 30 -11 6
-32 29 -46 51 -14 23 -28 38 -32 35 -3 -4 -1 -11 5 -17 6 -6 9 -18 6 -27 -4
-10 -2 -13 5 -8 7 4 12 2 12 -3 0 -14 -6 -14 -33 1 -19 10 -20 9 -10 -4 7 -8
10 -17 7 -21 -3 -3 -1 -16 6 -29 11 -22 10 -22 -4 -4 -14 18 -20 15 -17 -6 0
-4 -5 -5 -13 -2 -10 4 -13 -6 -11 -40 1 -25 4 -48 7 -52 4 -3 -3 -15 -14 -26
-19 -19 -20 -22 -4 -33 14 -11 15 -13 1 -19 -8 -3 -15 -11 -15 -18 0 -9 3 -9
12 0 7 7 17 12 23 12 5 0 1 -7 -9 -15 -10 -8 -23 -12 -29 -8 -6 3 -7 1 -3 -5
4 -7 13 -12 21 -12 8 0 16 -4 20 -10 3 -5 -7 -5 -25 1 -16 6 -30 17 -30 25 0
8 -5 14 -10 14 -7 0 -7 -7 1 -21 9 -17 8 -20 -3 -17 -7 3 -13 9 -13 14 -1 5
-7 20 -14 34 -11 20 -11 23 0 13 16 -16 39 -17 39 -2 0 5 -4 8 -9 5 -5 -3 -13
0 -18 7 -15 18 -24 49 -14 42 5 -3 12 -1 16 5 3 5 1 10 -5 10 -6 0 -9 4 -5 9
3 5 -3 11 -12 14 -10 2 -3 3 15 2 26 -2 32 0 28 12 -3 8 -6 18 -6 21 0 4 -4 0
-10 -8 -5 -8 -11 -12 -14 -10 -2 3 9 24 25 48 l29 43 -23 10 -22 10 22 -5 c12
-2 28 3 35 11 11 14 10 15 -9 9 -12 -4 -24 -2 -28 3 -4 7 0 8 11 4 15 -6 15
-4 -1 21 -13 20 -14 26 -4 24 7 -2 14 3 15 10 1 6 3 15 4 20 1 4 1 12 0 17 -1
6 2 6 7 2 4 -5 8 -14 8 -19 0 -6 6 -13 14 -16 9 -3 11 0 6 9 -5 8 -5 11 0 7 4
-4 15 -2 24 4 9 7 13 8 8 3 -4 -5 5 -21 19 -36 15 -15 32 -38 38 -50 6 -12 17
-24 24 -27 11 -3 11 0 0 19 -7 13 -21 34 -31 46 -18 21 -18 22 0 31 10 5 24 7
31 5 6 -3 12 0 12 5 0 6 -9 14 -20 17 -11 3 -20 13 -20 20 0 8 -6 12 -14 9
-19 -7 -31 15 -17 29 9 9 11 8 6 -5 -4 -10 -3 -18 2 -18 5 0 9 11 9 25 0 19
-3 22 -13 13 -7 -6 -13 -7 -13 -2 0 5 -5 2 -10 -6 -5 -8 -10 -10 -10 -4 0 7
-7 15 -16 18 -10 4 -13 2 -8 -6 5 -7 3 -8 -6 -3 -21 13 -60 12 -70 0z m100
-61 c0 -8 -19 -13 -24 -6 -3 5 1 9 9 9 8 0 15 -2 15 -3z m50 -24 c-18 -12 -30
-13 -30 -2 0 4 10 9 22 9 18 2 20 0 8 -7z m-159 -47 c13 -16 12 -17 -3 -4 -17
13 -22 21 -14 21 2 0 10 -8 17 -17z m-151 -51 c0 -13 -12 -22 -22 -16 -10 6
-1 24 13 24 5 0 9 -4 9 -8z m320 -20 c0 -4 -9 -8 -20 -9 -11 -1 -20 2 -20 5 0
4 9 8 20 9 11 1 20 -2 20 -5z m-166 -20 c2 -4 1 -14 -4 -22 -7 -11 -11 -11
-24 -1 -9 7 -13 17 -10 22 7 11 31 12 38 1z m196 4 c0 -2 -7 -7 -16 -10 -8 -3
-12 -2 -9 4 6 10 25 14 25 6z m-90 -40 c0 -3 -4 -8 -10 -11 -5 -3 -10 -1 -10
4 0 6 5 11 10 11 6 0 10 -2 10 -4z m95 -55 c-3 -5 -1 -12 5 -16 5 -3 10 -11
10 -18 0 -6 -6 -2 -14 8 -13 18 -13 35 0 35 3 0 3 -4 -1 -9z m-268 -136 c0 -8
-4 -12 -9 -9 -4 3 -8 9 -8 15 0 5 4 9 8 9 5 0 9 -7 9 -15z m93 -20 c5 3 11 1
15 -5 4 -6 12 -7 18 -4 8 5 8 3 0 -7 -19 -20 -16 -33 5 -18 16 13 16 12 3 -4
-14 -18 -15 -18 -31 4 -10 12 -20 17 -23 12 -10 -16 -52 -10 -53 7 0 9 1 10 3
3 7 -21 26 -14 20 7 -4 17 -2 18 14 9 11 -5 24 -7 29 -4z m-83 -22 c0 -9 -4
-10 -14 -2 -7 6 -13 12 -13 14 0 1 6 2 13 2 8 0 14 -6 14 -14z m151 -29 c-1
-5 -9 -9 -16 -10 -10 -2 -11 1 -1 12 12 14 24 13 17 -2z"/>
<path d="M475 2740 c4 -6 11 -8 16 -5 14 9 11 15 -7 15 -8 0 -12 -5 -9 -10z"/>
<path d="M667 2970 c-3 -14 4 -30 25 -50 28 -28 30 -52 5 -49 -35 4 -40 -1
-22 -21 22 -24 33 -26 31 -4 0 9 5 18 12 20 7 1 8 0 2 -3 -15 -7 -12 -20 5
-20 8 0 11 5 8 10 -3 6 -1 7 5 4 5 -4 1 11 -9 33 -18 37 -18 66 -1 57 4 -2 15
4 24 14 16 17 16 18 -2 16 -10 -1 -16 -5 -13 -11 4 -5 -3 -7 -15 -4 -16 5 -19
2 -14 -11 5 -14 4 -14 -12 -2 -9 8 -15 20 -12 28 3 7 2 13 -3 13 -5 0 -11 -9
-14 -20z m32 -44 c-3 -3 -11 5 -18 17 -13 21 -12 21 5 5 10 -10 16 -20 13 -22z"/>
<path d="M979 2973 c-13 -16 -12 -17 4 -4 9 7 17 15 17 17 0 8 -8 3 -21 -13z"/>
<path d="M7 2949 c7 -7 15 -10 18 -7 3 3 -2 9 -12 12 -14 6 -15 5 -6 -5z"/>
<path d="M307 2949 c7 -7 15 -10 18 -7 3 3 -2 9 -12 12 -14 6 -15 5 -6 -5z"/>
<path d="M770 2948 c0 -4 -6 -7 -12 -5 -18 3 -16 -25 2 -31 12 -4 13 -3 3 10
-10 12 -10 15 1 15 8 0 13 -8 11 -19 -3 -12 0 -16 8 -11 8 5 8 2 -1 -9 -10
-12 -10 -17 1 -27 10 -8 14 -7 14 4 0 8 -4 12 -9 9 -4 -3 -8 -3 -8 0 0 3 8 10
18 15 16 8 18 6 16 -12 -1 -12 -3 -26 -3 -31 -1 -4 -7 -6 -15 -3 -16 6 -30
-19 -16 -28 6 -4 10 -2 10 3 0 19 32 8 43 -15 13 -29 44 -38 81 -23 33 12 46
6 26 -13 -10 -9 -11 -9 -6 0 5 9 2 11 -10 6 -15 -5 -15 -7 1 -16 10 -5 20 -5
24 -1 3 5 15 14 25 20 11 6 22 17 24 25 2 8 -2 5 -11 -5 -14 -19 -14 -19 -14
7 0 17 4 24 11 20 6 -4 4 2 -4 13 -22 29 -24 30 -18 13 4 -9 2 -22 -3 -30 -5
-9 -7 -1 -5 24 3 39 -7 56 -20 36 -5 -8 -3 -9 6 -4 9 6 11 4 5 -4 -5 -9 -13
-7 -31 10 -13 12 -24 19 -24 15 0 -5 -6 -3 -14 3 -11 10 -18 7 -31 -11 -12
-16 -16 -17 -11 -5 3 11 0 20 -9 23 -7 3 -11 13 -8 22 4 14 3 15 -5 2 -6 -8
-8 -18 -6 -22 3 -4 1 -8 -4 -8 -16 0 -21 12 -12 30 6 12 5 17 -6 17 -7 0 -14
-4 -14 -9z m95 -129 c-4 -5 1 -12 10 -16 10 -3 21 0 26 8 6 9 9 10 9 2 0 -17
-17 -25 -39 -18 -11 3 -19 14 -18 25 1 10 5 16 9 14 5 -3 6 -10 3 -15z"/>
<path d="M720 2934 c0 -3 9 -22 20 -43 16 -32 17 -41 6 -50 -7 -6 -15 -9 -18
-6 -9 9 -30 -24 -23 -35 4 -6 15 -8 25 -5 13 4 18 1 16 -9 -3 -19 -16 -34 -16
-18 0 7 -5 12 -11 12 -8 0 -9 -4 0 -13 6 -8 7 -18 3 -23 -4 -5 2 -1 14 9 23
19 34 14 34 -17 0 -15 3 -17 9 -8 6 10 11 9 22 -4 11 -13 11 -18 2 -21 -7 -3
-13 -11 -13 -19 0 -7 -11 -21 -24 -30 -19 -12 -24 -22 -21 -45 3 -21 -2 -33
-18 -44 -15 -10 -17 -15 -7 -15 11 -1 11 -3 -3 -11 -9 -5 -23 -7 -30 -3 -9 5
-9 4 1 -7 6 -7 12 -18 12 -23 0 -6 -4 -4 -10 4 -15 23 -22 5 -9 -23 7 -15 16
-24 21 -21 4 3 6 9 4 13 -3 4 -1 13 4 21 7 12 13 11 32 -5 12 -11 17 -13 11
-5 -9 12 -8 20 3 34 11 16 11 21 1 28 -9 6 -8 8 3 8 13 0 13 1 0 10 -11 7 -12
10 -2 10 9 0 11 7 7 23 -4 15 -3 18 3 8 7 -9 12 -10 16 -2 6 10 -6 15 -26 12
-14 -2 -8 17 6 22 8 3 17 -1 20 -10 5 -13 9 -13 23 -2 10 8 5 -2 -10 -23 -18
-24 -24 -39 -17 -43 8 -5 8 -11 -1 -21 -9 -11 -9 -17 0 -28 8 -10 9 -16 1 -21
-6 -3 -8 -11 -4 -16 3 -6 12 -5 21 3 15 12 15 11 2 -10 -13 -21 -15 -21 -26
-5 -7 9 -13 13 -13 8 0 -4 -10 0 -22 11 -22 19 -22 19 -8 0 13 -18 13 -19 0
-11 -13 8 -13 6 -2 -7 8 -10 20 -14 30 -11 15 6 15 5 2 -11 -13 -17 -15 -17
-32 4 -17 20 -23 19 -19 -4 1 -5 -4 -4 -12 3 -12 9 -16 9 -21 -1 -3 -7 -3 -3
0 9 4 17 2 21 -9 18 -16 -7 -19 -34 -3 -36 6 -1 22 -2 36 -3 14 0 30 -4 37 -9
6 -4 18 -1 26 7 8 8 18 12 22 8 4 -4 12 -7 18 -7 7 0 11 -9 9 -20 -2 -16 -1
-17 7 -5 5 8 8 17 6 20 -2 3 6 12 18 20 19 11 20 11 10 -1 -8 -10 -9 -19 -1
-29 8 -12 9 -12 4 2 -3 10 -1 20 5 24 6 3 8 13 5 21 -3 8 -1 11 5 8 5 -4 18
-1 27 6 12 10 12 7 -3 -11 -11 -14 -16 -22 -11 -18 5 4 16 2 25 -5 14 -10 14
-10 4 3 -9 12 -8 19 3 34 12 17 12 22 -4 40 -9 10 -12 17 -7 13 6 -3 17 -2 24
3 9 5 3 7 -17 7 -17 -1 -28 -5 -26 -8 2 -4 -2 -9 -10 -12 -10 -4 -12 3 -10 26
4 27 2 29 -8 14 -10 -13 -17 -14 -28 -6 -13 9 -12 10 3 5 14 -4 16 -1 13 20
-4 22 -3 24 10 13 8 -7 14 -8 13 -3 -1 5 -1 18 0 28 1 20 1 20 16 0 14 -18 15
-17 5 8 -7 21 -6 26 4 22 8 -3 17 0 22 7 4 7 3 10 -4 5 -13 -8 -31 23 -24 43
3 9 0 11 -8 6 -7 -4 -4 5 6 21 11 15 14 25 8 21 -15 -9 -61 27 -69 53 -5 15
-10 18 -23 11 -11 -6 -23 -5 -33 3 -15 10 -15 13 -1 25 13 13 13 16 -2 27 -9
6 -13 14 -9 15 4 2 -2 14 -14 26 -13 12 -23 20 -23 17z m49 -120 c3 -3 6 -15
6 -26 0 -12 5 -23 12 -25 8 -3 10 4 7 22 -4 22 -3 24 10 13 10 -9 11 -15 2
-20 -6 -4 -7 -8 -1 -8 5 0 4 -5 -3 -12 -9 -9 -16 -7 -31 6 -11 10 -20 21 -19
25 3 26 -3 33 -17 21 -9 -7 -18 -10 -22 -6 -3 3 -1 6 6 6 7 0 10 4 6 9 -6 11
33 6 44 -5z m111 -76 c0 -4 -7 -5 -15 -2 -8 4 -15 10 -15 15 0 4 -6 7 -12 5
-7 -1 -10 -1 -5 1 4 3 4 10 0 16 -3 6 6 2 20 -9 15 -10 27 -22 27 -26z m-79
-161 c-10 -9 -11 -8 -5 6 3 10 9 15 12 12 3 -3 0 -11 -7 -18z m-55 -32 c-1
-14 -4 -25 -8 -25 -5 0 -14 0 -20 0 -9 0 -8 3 2 10 8 5 16 14 16 20 4 30 11
27 10 -5z m159 -35 c3 -6 -1 -7 -9 -4 -18 7 -21 14 -7 14 6 0 13 -4 16 -10z
m-91 -58 c3 -5 -1 -9 -9 -9 -8 0 -12 4 -9 9 3 4 7 8 9 8 2 0 6 -4 9 -8z"/>
<path d="M837 2925 c3 -8 9 -12 14 -9 12 7 11 11 -5 17 -10 4 -13 1 -9 -8z"/>
<path d="M872 2932 c2 -8 6 -12 10 -10 3 2 15 -5 25 -15 16 -14 20 -14 20 -2
0 8 -4 12 -8 9 -4 -2 -12 4 -18 13 -8 14 -10 15 -11 3 0 -13 -1 -13 -11 0 -7
10 -9 11 -7 2z"/>
<path d="M250 2880 c-9 -6 -10 -10 -3 -10 6 0 15 5 18 10 8 12 4 12 -15 0z"/>
<path d="M555 2873 c3 -3 0 -12 -6 -19 -15 -19 -1 -36 23 -28 22 6 19 -4 -8
-36 -7 -8 -13 -18 -13 -23 0 -4 -8 -18 -17 -32 -12 -19 -13 -28 -4 -42 11 -17
11 -17 6 0 -3 10 -2 16 2 14 4 -3 14 2 22 11 13 14 12 15 -2 9 -12 -4 -15 -2
-11 8 3 8 10 12 16 8 6 -4 7 -1 2 7 -6 10 -4 12 8 7 19 -7 44 28 27 38 -16 10
-12 28 5 22 17 -7 30 9 14 18 -5 4 -8 13 -5 21 3 7 1 16 -3 19 -12 7 -33 -20
-23 -30 4 -4 0 -6 -8 -3 -8 3 -15 10 -15 16 0 5 -3 13 -7 16 -5 3 -6 3 -3 -1z
m10 -33 c3 -5 1 -10 -4 -10 -6 0 -11 5 -11 10 0 6 2 10 4 10 3 0 8 -4 11 -10z
m50 -10 c3 -6 -1 -7 -9 -4 -18 7 -21 14 -7 14 6 0 13 -4 16 -10z m-22 -57 c-4
-11 -8 -13 -11 -5 -2 7 -9 9 -15 5 -7 -4 -6 1 2 10 16 20 33 13 24 -10z"/>
<path d="M230 2856 c0 -2 7 -7 16 -10 8 -3 12 -2 9 4 -6 10 -25 14 -25 6z"/>
<path d="M416 2812 c-4 -7 -2 -12 4 -12 6 0 8 -4 5 -10 -3 -6 1 -7 9 -4 9 3
16 14 16 23 0 13 -2 13 -9 2 -7 -11 -9 -11 -13 0 -3 10 -6 10 -12 1z"/>
<path d="M986 2775 c-18 -14 -18 -14 1 -12 11 0 20 7 20 14 0 7 -1 13 -1 13
-1 0 -9 -7 -20 -15z"/>
<path d="M1140 2750 c0 -5 5 -10 11 -10 5 0 7 5 4 10 -3 6 -8 10 -11 10 -2 0
-4 -4 -4 -10z"/>
<path d="M1380 2756 c0 -2 8 -10 18 -17 15 -13 16 -12 3 4 -13 16 -21 21 -21
13z"/>
<path d="M1915 2750 c3 -5 13 -6 22 -3 11 4 14 3 9 -5 -5 -8 -2 -10 9 -6 20 8
12 16 -20 19 -14 2 -23 -1 -20 -5z"/>
<path d="M1986 2727 c3 -10 9 -15 12 -12 3 3 0 11 -7 18 -10 9 -11 8 -5 -6z"/>
<path d="M1798 2723 c7 -3 16 -2 19 1 4 3 -2 6 -13 5 -11 0 -14 -3 -6 -6z"/>
<path d="M3679 2708 c14 -19 16 -17 -35 -33 -8 -3 -12 -9 -9 -15 4 -6 -1 -7
-11 -3 -12 5 -15 3 -9 -6 6 -10 3 -11 -12 -3 -15 9 -20 8 -20 -3 0 -8 3 -12 7
-10 4 2 7 -2 7 -10 0 -10 -5 -11 -17 -5 -12 6 -16 4 -17 -10 -1 -14 3 -17 15
-13 9 3 6 -3 -8 -13 -14 -10 -28 -18 -32 -17 -4 2 -4 -5 -1 -14 4 -11 8 -13
11 -5 2 7 8 10 13 7 5 -4 3 -12 -4 -20 -8 -8 -16 -10 -24 -4 -8 7 -9 1 -3 -24
5 -25 4 -34 -6 -34 -7 0 -10 5 -7 10 3 6 1 7 -6 3 -9 -6 -9 -11 1 -24 8 -10 9
-13 1 -9 -7 5 -14 -4 -18 -23 -4 -18 -11 -27 -17 -24 -6 4 -8 2 -4 -4 3 -6 2
-13 -3 -16 -11 -7 -9 -25 3 -45 7 -10 6 -12 -4 -6 -10 6 -12 4 -7 -9 4 -11 3
-15 -4 -10 -7 4 -9 0 -5 -12 7 -23 -8 -49 -23 -40 -7 5 -9 1 -5 -8 3 -9 10
-13 15 -10 5 3 1 -10 -10 -29 -11 -19 -17 -38 -13 -42 4 -4 -2 -3 -14 3 -16 9
-21 8 -21 -3 0 -8 4 -12 8 -10 3 3 12 -2 18 -9 10 -12 8 -13 -11 -8 -20 5 -21
4 -10 -11 12 -14 10 -20 -10 -39 -42 -41 -50 -55 -37 -64 8 -4 9 -3 5 4 -5 8
-1 10 9 5 13 -4 14 -8 4 -13 -7 -5 -18 -6 -26 -3 -9 4 -11 0 -7 -11 3 -9 1
-16 -5 -16 -6 0 -11 5 -11 12 0 6 -3 8 -7 4 -5 -4 1 -14 11 -22 17 -12 18 -14
3 -14 -9 0 -16 -3 -16 -7 4 -23 -3 -33 -22 -33 -19 0 -20 -2 -8 -17 13 -15 12
-15 -11 -3 -24 13 -24 12 -10 -5 14 -17 13 -18 -8 -13 -12 4 -20 2 -17 -2 3
-5 -8 -19 -23 -32 l-28 -23 20 -18 c21 -18 21 -18 -2 -7 -13 6 -31 9 -40 7
-16 -4 -16 -5 1 -6 9 0 17 -6 17 -12 0 -6 -6 -9 -13 -6 -7 3 -22 -2 -32 -10
-17 -12 -18 -15 -5 -23 13 -8 13 -10 -2 -10 -9 0 -19 6 -21 13 -3 6 -6 1 -7
-13 -1 -23 -2 -24 -14 -7 -12 16 -14 16 -20 2 -3 -9 -2 -13 4 -10 6 3 10 -1
10 -10 0 -9 -6 -15 -12 -13 -7 3 -19 -3 -28 -12 -8 -9 -11 -10 -6 -3 7 10 3
12 -15 9 -13 -3 -28 -5 -32 -5 -5 -1 -5 -7 -1 -13 5 -8 0 -7 -11 2 -17 14 -18
13 -11 -5 6 -16 5 -17 -5 -8 -9 10 -10 15 0 27 9 11 9 16 0 22 -7 4 -9 3 -6
-2 3 -6 -3 -15 -13 -21 -19 -12 -23 -1 -7 23 8 14 -1 24 -18 18 -9 -4 -12 6
-10 35 2 32 -1 38 -14 34 -9 -2 -6 2 6 9 18 11 20 16 11 33 -11 19 -10 19 7 5
12 -10 16 -10 11 -2 -4 7 -2 20 6 29 11 14 10 15 -12 10 -21 -6 -20 -5 4 7 28
13 38 30 37 69 0 9 4 15 9 12 5 -3 11 -1 14 4 4 5 1 13 -5 17 -8 5 -9 3 -4 -6
5 -9 4 -11 -4 -6 -15 10 -3 29 15 22 8 -3 14 -1 14 4 0 6 10 20 22 32 16 16
17 20 5 15 -9 -3 -17 -2 -17 3 0 6 8 10 18 10 14 0 15 2 2 10 -11 7 -11 10 -2
10 7 0 11 4 8 8 -3 5 1 9 8 9 8 0 12 -7 10 -16 -3 -9 1 -6 7 7 14 27 33 30 24
3 -3 -11 1 -24 12 -32 17 -13 17 -13 3 5 -12 15 -12 20 -2 23 6 3 9 10 6 15
-4 7 -2 8 4 4 6 -4 9 -13 6 -20 -6 -16 34 -44 59 -40 9 1 17 -2 17 -7 0 -6 10
-1 22 11 16 15 24 17 30 8 4 -8 8 -9 8 -2 0 18 -13 24 -27 12 -7 -6 -16 -8
-20 -4 -3 3 -1 6 6 6 7 0 10 4 7 8 -3 5 10 8 29 7 20 -2 38 1 40 6 3 4 -4 6
-16 4 -16 -3 -19 -1 -12 6 5 5 19 11 30 12 13 1 19 7 17 21 -1 12 -3 25 -3 29
-1 5 -6 5 -13 1 -6 -4 -8 -3 -5 3 4 6 0 16 -8 23 -8 7 -12 16 -9 21 3 5 -2 12
-11 15 -9 4 -14 13 -11 20 3 7 0 16 -6 20 -6 4 -8 3 -5 -3 4 -6 -4 -10 -18
-10 -22 0 -29 7 -26 29 1 8 -20 5 -36 -5 -7 -5 -13 -5 -13 -1 0 3 -11 -1 -24
-9 -18 -12 -26 -13 -35 -4 -10 9 -12 8 -9 -8 2 -14 -2 -19 -13 -17 -9 1 -24
-7 -33 -17 -14 -15 -23 -18 -41 -11 -21 8 -23 6 -20 -11 3 -16 1 -18 -9 -10
-16 14 -29 2 -15 -15 7 -8 6 -14 -2 -20 -8 -4 -9 -3 -5 4 4 7 2 12 -3 12 -6 0
-11 -7 -11 -15 0 -8 -7 -15 -15 -15 -8 0 -15 -5 -15 -11 0 -5 -6 -7 -12 -3 -8
5 -7 0 2 -11 14 -17 14 -18 -7 -7 -19 10 -20 9 -15 -10 4 -16 2 -19 -8 -13
-10 6 -12 4 -7 -8 4 -10 2 -16 -5 -14 -6 1 -13 -4 -16 -12 -3 -9 0 -11 7 -6 9
5 9 2 0 -13 -11 -17 -17 -19 -33 -10 -12 6 -18 7 -14 3 4 -5 2 -15 -5 -24 -10
-14 -10 -14 5 -3 15 12 17 11 15 -7 0 -11 -4 -18 -8 -15 -4 2 -10 -3 -13 -12
-3 -8 -10 -12 -16 -9 -7 4 -7 -2 0 -19 10 -26 -3 -46 -16 -25 -5 8 -3 9 6 4 9
-5 11 -4 6 4 -6 9 -11 9 -22 0 -7 -6 -12 -15 -9 -19 3 -5 1 -12 -5 -15 -7 -5
-8 -11 -1 -19 7 -8 6 -17 -1 -26 -8 -13 -9 -12 -4 2 3 12 1 15 -9 12 -8 -3
-11 -12 -8 -20 6 -17 -8 -18 -27 -1 -12 10 -12 9 -3 -3 17 -24 13 -51 -7 -40
-12 6 -16 4 -17 -11 -1 -11 2 -17 6 -15 4 3 8 -1 8 -8 0 -8 -7 -12 -15 -8 -9
3 -13 1 -9 -4 3 -6 -2 -10 -11 -11 -10 -1 -22 -3 -27 -5 -6 -2 -10 2 -11 7 0
6 7 9 17 7 25 -4 32 13 11 29 -15 13 -16 12 -4 -3 12 -15 10 -17 -18 -16 -32
1 -47 12 -30 23 7 4 7 12 0 25 -8 15 -6 18 13 16 15 -2 24 2 24 11 0 8 -6 12
-15 8 -12 -4 -12 -1 2 19 9 14 14 31 13 38 -2 7 -2 10 0 6 11 -20 22 -4 19 27
-2 19 0 38 6 41 5 3 7 12 5 18 -3 7 1 13 9 13 12 0 12 -4 -1 -24 -12 -17 -12
-23 -3 -23 9 0 9 -3 -2 -11 -13 -9 -13 -10 0 -6 8 2 14 11 12 21 -2 9 1 16 7
16 11 0 9 19 -3 39 -6 10 -5 12 2 7 7 -4 12 -3 12 3 0 5 -6 12 -12 15 -7 4 -3
4 10 2 12 -2 22 0 22 5 0 5 -6 9 -12 9 -9 0 -8 4 2 10 13 9 13 10 0 10 -13 0
-13 2 0 9 8 6 17 8 20 6 4 -2 7 2 7 10 0 11 -4 12 -13 4 -9 -8 -11 -5 -7 11 3
13 11 19 19 16 8 -3 13 -2 13 2 -1 4 0 10 1 15 6 19 5 33 -5 39 -5 4 0 8 13 8
12 0 22 5 22 11 0 5 -4 8 -9 5 -5 -3 -11 1 -14 9 -4 9 -1 12 9 8 9 -3 14 0 12
8 -2 8 3 13 10 11 8 -1 11 2 7 8 -3 6 -11 7 -17 4 -6 -4 -8 -2 -4 4 3 5 0 13
-6 16 -7 3 -1 3 13 1 23 -3 26 0 21 17 -4 15 -1 19 9 16 8 -3 13 -11 11 -17
-1 -7 2 -10 8 -6 7 4 7 12 0 26 -7 13 -7 19 0 20 20 3 25 4 39 13 10 6 12 5 7
-2 -4 -7 -2 -12 4 -12 6 0 9 -4 6 -8 -3 -5 1 -9 8 -9 7 0 13 6 13 13 0 7 -5
10 -10 7 -6 -3 -7 -2 -4 4 3 5 24 9 47 7 29 -2 43 2 50 14 8 13 9 10 5 -13 -3
-16 -2 -24 1 -17 10 20 42 34 50 20 4 -6 3 -8 -3 -5 -6 4 -17 -1 -24 -11 -13
-15 -12 -16 4 -3 9 7 17 10 17 5 0 -5 10 2 21 16 11 14 18 20 15 14 -3 -7 4
-14 15 -17 13 -4 18 -10 13 -18 -4 -8 -3 -10 5 -5 9 6 9 11 0 22 -16 20 0 17
24 -3 13 -11 17 -12 12 -4 -6 11 -4 13 10 7 14 -5 15 -4 7 7 -9 10 -4 13 21
12 18 -1 37 1 42 4 19 11 34 9 39 -5 6 -15 28 -20 24 -5 -2 5 2 8 7 7 6 0 9
-10 8 -21 -1 -11 1 -14 3 -7 3 6 13 12 22 13 11 0 12 2 5 6 -24 9 -13 18 24
18 22 0 38 5 41 14 3 8 0 11 -7 7 -7 -5 -9 -1 -5 9 6 14 8 14 21 -2 14 -17 14
-17 10 4 -4 17 -1 21 14 18 21 -4 39 22 31 44 -2 8 0 11 6 7 14 -8 9 18 -6 36
-6 8 -8 19 -4 24 4 5 -2 1 -14 -9 -24 -20 -44 -22 -44 -4 0 8 -3 7 -9 -3 -6
-8 -7 -18 -4 -24 3 -5 1 -6 -5 -2 -6 4 -9 12 -6 19 5 15 -33 21 -41 6 -3 -5 1
-6 9 -3 9 3 16 1 16 -4 0 -6 -9 -9 -20 -7 -11 2 -22 0 -25 -4 -8 -14 -69 -2
-84 17 -12 16 -13 15 -7 -5 4 -12 2 -24 -5 -29 -7 -4 -9 -3 -5 4 3 6 -2 15
-12 21 -14 7 -19 6 -19 -4 0 -8 4 -12 9 -9 4 3 8 1 8 -5 0 -5 -4 -13 -10 -16
-5 -3 -10 -1 -10 6 0 7 -3 9 -7 6 -3 -4 -13 -1 -21 6 -13 10 -14 8 -8 -13 6
-21 5 -22 -4 -7 -6 9 -16 15 -21 12 -5 -4 -6 -11 -3 -17 4 -7 2 -8 -5 -4 -6 4
-9 11 -6 16 3 5 0 12 -6 16 -8 5 -9 3 -5 -5 5 -8 0 -14 -13 -18 -12 -3 -21
-10 -21 -15 0 -6 -6 -6 -14 1 -10 8 -16 9 -21 1 -3 -6 -12 -7 -18 -3 -7 4 -20
9 -31 10 -16 3 -17 1 -5 -14 13 -16 12 -16 -14 0 -16 10 -31 16 -34 13 -4 -3
-12 -1 -19 5 -8 7 -14 6 -20 -2 -4 -7 -3 -9 4 -5 6 3 13 2 17 -3 3 -6 13 -8
23 -5 14 5 14 4 2 -4 -8 -6 -19 -7 -25 -3 -5 5 -17 7 -26 6 -9 -2 -16 3 -16
11 0 7 4 11 8 8 4 -2 7 5 6 16 -1 11 -5 20 -9 20 -4 0 -8 5 -8 11 0 8 5 7 15
-1 9 -7 19 -10 22 -6 4 4 1 11 -7 16 -10 7 -11 10 -2 10 6 0 12 7 12 16 0 14
2 15 18 3 15 -13 16 -12 4 3 -8 9 -21 14 -30 12 -15 -5 -15 -4 1 9 19 16 24
32 5 21 -7 -5 -9 -2 -6 8 5 11 0 14 -20 13 -15 -1 -33 3 -41 9 -10 8 -9 3 3
-15 16 -26 16 -26 -6 -25 -13 0 -26 5 -30 11 -5 6 -12 5 -20 -4 -11 -12 -10
-13 2 -7 8 4 4 -1 -9 -11 -13 -10 -31 -18 -40 -18 -9 0 -15 -8 -15 -18 1 -11
-4 -16 -13 -15 -9 2 -17 -5 -18 -15 -2 -10 1 -14 7 -11 6 4 9 1 6 -7 -3 -8
-12 -13 -21 -11 -11 2 -15 -2 -11 -12 3 -8 13 -12 22 -9 9 3 -3 -7 -27 -22
-33 -21 -40 -30 -30 -37 11 -7 9 -8 -4 -4 -10 3 -23 6 -28 6 -6 0 -7 5 -4 10
10 16 -1 11 -16 -7 -12 -14 -12 -16 0 -8 9 5 12 4 8 -3 -9 -14 -36 -9 -48 9
-7 11 -9 11 -9 1 0 -7 -6 -10 -12 -7 -7 4 -5 0 5 -8 17 -14 17 -15 -5 -15 -29
0 -55 -6 -64 -14 -3 -4 -12 -4 -19 -2 -7 3 -25 -2 -38 -11 -19 -12 -27 -13
-33 -4 -4 7 -3 9 2 6 17 -10 34 7 24 23 -8 13 -10 12 -10 -2 0 -10 -6 -17 -12
-15 -7 1 -13 -6 -13 -15 0 -9 -4 -20 -8 -25 -5 -4 -8 -3 -7 2 6 30 -1 38 -16
19 -8 -10 -13 -13 -9 -6 4 7 0 12 -10 12 -9 0 -14 -4 -11 -8 2 -4 -4 -9 -15
-9 -18 -2 -19 0 -7 15 9 12 6 11 -10 -3 -20 -16 -25 -17 -32 -5 -6 9 -10 10
-10 3 0 -6 -11 -10 -25 -9 -14 2 -30 -3 -36 -10 -5 -7 -18 -11 -28 -9 -10 2
-18 -3 -18 -11 0 -10 4 -11 12 -4 9 7 14 6 18 -4 4 -10 1 -13 -9 -9 -8 3 -14
-1 -14 -8 0 -12 -2 -12 -9 -1 -4 8 -11 13 -15 13 -19 -3 -27 0 -21 8 3 5 0 13
-7 17 -7 4 -10 3 -5 -1 4 -5 0 -19 -9 -32 -20 -31 -4 -53 34 -49 33 3 65 -11
56 -25 -3 -6 3 -5 14 2 12 7 20 17 19 22 -1 5 4 12 12 15 8 2 11 0 7 -6 -3 -5
0 -12 8 -15 19 -8 28 3 15 19 -7 8 -6 14 2 20 8 4 9 3 5 -4 -4 -7 -3 -12 3
-12 5 0 11 5 13 12 3 7 7 5 11 -6 4 -10 3 -15 -3 -11 -6 3 -10 1 -10 -5 0 -7
6 -10 13 -7 6 2 12 13 12 24 0 12 3 25 7 29 4 3 6 -2 3 -14 -2 -14 3 -22 16
-25 17 -5 18 -3 7 10 -12 14 -11 15 9 5 16 -9 24 -9 29 0 4 6 3 8 -3 5 -6 -4
-17 1 -24 10 -12 15 -12 16 1 8 8 -6 18 -10 23 -11 4 -1 10 -3 15 -4 15 -5 57
2 67 11 18 18 28 9 10 -11 -17 -19 -17 -19 8 -7 14 6 23 15 21 19 -2 3 1 10 7
14 8 4 9 3 5 -4 -9 -15 36 -12 46 3 5 6 19 4 38 -7 16 -9 30 -13 30 -8 0 6 -4
10 -8 10 -5 0 -17 7 -28 15 -17 14 -16 14 13 1 24 -12 33 -13 36 -3 3 6 4 -5
3 -26 -1 -25 -5 -36 -13 -32 -7 2 -15 -1 -19 -7 -4 -6 -3 -8 4 -4 6 3 13 2 17
-4 4 -6 11 -7 17 -4 7 4 8 2 4 -4 -4 -6 -14 -8 -23 -5 -12 5 -14 3 -7 -8 12
-20 14 -40 3 -33 -5 3 -7 9 -4 14 3 4 -2 10 -10 13 -11 5 -12 1 -5 -18 7 -18
6 -23 -4 -19 -7 3 -16 -2 -19 -10 -4 -10 -1 -13 9 -9 7 3 14 0 14 -6 0 -6 -10
-11 -22 -11 -18 0 -20 -2 -8 -10 8 -5 11 -12 7 -16 -4 -4 -1 -14 6 -23 11 -14
10 -14 -5 -2 -10 7 -16 17 -13 20 2 4 -2 8 -10 8 -11 0 -11 -4 1 -23 12 -17
12 -24 3 -30 -7 -4 -9 -3 -5 4 3 6 2 13 -3 17 -6 3 -8 -5 -5 -20 3 -16 0 -23
-8 -21 -7 1 -10 1 -5 -1 4 -3 7 -11 7 -19 0 -9 -5 -12 -12 -8 -7 5 -8 3 -2 -7
4 -8 9 -21 11 -29 1 -11 -2 -10 -12 3 -12 17 -13 12 -11 -37 2 -43 0 -53 -10
-45 -8 6 -14 6 -18 0 -3 -5 0 -12 6 -15 7 -4 3 -4 -9 -2 -15 3 -20 0 -16 -10
3 -8 9 -11 14 -8 5 3 6 -2 2 -11 -3 -9 -9 -13 -12 -8 -9 12 -31 14 -31 3 0 -6
4 -10 9 -10 14 0 7 -24 -16 -53 -15 -19 -27 -25 -39 -21 -17 6 -17 5 -4 -7 8
-8 14 -13 12 -12 -2 1 -14 -2 -26 -7 -13 -4 -29 -4 -39 1 -13 8 -15 6 -11 -4
3 -9 17 -13 34 -12 16 1 27 -1 24 -6 -3 -5 -9 -7 -14 -4 -4 3 -11 -1 -13 -7
-4 -10 -6 -10 -6 0 -1 7 -5 11 -10 8 -10 -7 -43 39 -35 47 3 3 13 3 22 -1 14
-5 15 -4 2 10 -8 9 -19 13 -25 10 -5 -3 -4 1 2 10 7 8 10 18 7 21 -4 4 3 5 14
2 15 -2 19 0 15 11 -3 7 -10 11 -17 7 -7 -4 -7 -1 1 9 7 8 9 19 5 23 -4 5 -1
5 7 0 10 -6 11 -2 6 15 -5 17 -4 20 5 15 10 -6 12 -1 8 18 -3 15 -1 24 3 21 5
-3 17 0 26 6 14 9 14 10 2 7 -9 -3 -16 1 -16 9 0 8 6 13 14 10 7 -3 13 -1 13
4 0 9 -15 14 -33 11 -5 -1 -6 3 -3 7 3 5 17 8 31 7 14 -2 23 1 19 6 -3 5 -10
7 -15 4 -5 -4 -9 -1 -9 4 0 6 5 11 11 11 8 0 7 6 -2 17 -13 15 -12 15 7 5 18
-10 20 -8 18 19 -1 18 2 27 9 22 6 -4 8 0 4 11 -4 10 -3 15 3 11 6 -3 10 -1
10 5 0 6 -7 13 -16 17 -14 5 -12 8 7 19 13 7 18 13 12 14 -7 0 -13 5 -13 11 0
5 5 7 12 3 7 -4 8 -3 4 5 -4 6 -12 8 -18 5 -7 -5 -9 -1 -5 9 4 11 2 14 -9 10
-10 -4 -12 -9 -4 -18 10 -13 4 -25 -14 -25 -7 0 -7 3 0 8 9 5 8 11 -2 20 -8 7
-14 8 -14 2 0 -5 -5 -10 -11 -10 -6 0 -8 7 -5 16 3 9 2 12 -5 8 -6 -3 -9 -14
-6 -24 3 -12 0 -17 -12 -15 -9 2 -16 4 -16 5 0 7 -36 6 -40 0 -3 -5 3 -7 13
-5 11 2 19 -3 19 -11 0 -10 -4 -11 -14 -3 -7 6 -13 8 -13 4 0 -5 -8 0 -19 9
-16 15 -19 15 -24 2 -4 -10 -1 -13 7 -10 7 3 13 -1 13 -9 0 -9 -7 -12 -19 -9
-10 2 -18 8 -18 12 0 19 -32 17 -51 -3 -17 -19 -19 -19 -13 -3 5 14 3 17 -7
14 -8 -3 -13 -10 -12 -15 1 -5 -8 -9 -20 -8 -30 3 -46 -4 -43 -18 1 -7 1 -9
-1 -4 -3 4 -9 5 -14 2 -5 -4 -6 1 -3 9 3 9 3 16 0 16 -4 0 -11 -12 -17 -27 -7
-19 -13 -23 -21 -15 -17 17 -39 3 -28 -18 7 -13 6 -21 -2 -26 -6 -4 -8 -3 -4
4 10 16 -12 25 -31 12 -17 -11 -17 -11 0 -6 12 4 17 2 14 -6 -2 -7 -10 -12
-17 -10 -8 2 -10 -3 -7 -13 7 -17 -4 -20 -20 -4 -8 8 -13 7 -18 -2 -5 -8 -4
-10 3 -5 8 5 12 -1 12 -16 0 -18 -2 -20 -10 -8 -10 16 -13 10 -13 -32 0 -9 -4
-16 -10 -15 -6 1 -11 -2 -12 -8 0 -5 -6 -20 -14 -33 -10 -19 -15 -21 -27 -11
-12 10 -13 9 -8 -6 5 -12 4 -16 -4 -11 -7 4 -10 -1 -7 -15 3 -15 0 -19 -11
-15 -8 3 -13 2 -9 -3 3 -5 2 -11 -2 -14 -5 -2 -2 -2 5 -1 6 2 12 -1 12 -6 0
-10 -23 -15 -45 -10 -5 1 -7 -2 -3 -6 4 -4 3 -13 -3 -20 -9 -10 -7 -15 5 -20
9 -3 16 -14 15 -23 0 -10 -2 -11 -6 -3 -2 6 -9 12 -14 12 -6 0 -5 -8 1 -20 9
-16 8 -20 -5 -20 -9 0 -13 -5 -10 -10 4 -6 12 -7 18 -3 9 5 9 3 0 -8 -7 -9 -9
-20 -5 -25 4 -5 -1 0 -12 11 -19 20 -19 20 -11 -5 4 -14 15 -34 24 -45 15 -19
15 -19 -3 -5 -18 14 -19 13 -13 -2 4 -11 2 -15 -7 -12 -7 3 -13 -2 -13 -10 0
-8 4 -13 9 -10 4 3 8 -1 8 -9 0 -8 7 -20 15 -27 8 -7 12 -16 9 -21 -3 -5 0 -9
7 -9 7 0 10 -3 7 -6 -4 -3 -15 -1 -27 5 -14 8 -22 8 -27 -1 -4 -7 -3 -8 4 -4
6 4 20 -2 31 -13 11 -11 23 -16 26 -13 4 4 4 -4 1 -18 -5 -19 -5 -21 3 -9 9
14 23 16 66 10 7 -1 7 -4 0 -9 -5 -4 -17 -16 -25 -27 -14 -18 -13 -18 13 2 17
13 35 19 49 15 16 -4 19 -2 13 9 -7 12 -6 12 7 1 11 -9 18 -10 23 -2 3 6 11 8
16 5 5 -4 9 -1 9 4 0 14 -13 14 -28 -1 -9 -9 -12 -9 -12 0 0 13 1 13 37 17 13
1 29 8 37 14 8 7 21 9 28 5 11 -6 11 -5 0 8 -11 14 -9 16 19 14 28 -2 29 -1
13 11 -17 12 -17 13 2 14 10 1 23 1 27 0 4 -1 16 3 26 8 13 7 22 5 34 -10 9
-10 13 -19 8 -19 -6 0 -9 -9 -8 -20 1 -11 5 -20 10 -20 5 0 7 6 4 13 -3 8 1
14 8 14 7 0 11 -6 8 -14 -5 -12 8 -18 30 -14 4 1 15 2 25 4 9 2 26 9 37 16 15
9 16 11 3 7 -22 -7 -23 1 -4 20 11 10 15 11 19 1 3 -9 8 -9 20 2 13 11 15 17
6 28 -10 11 -8 12 6 7 14 -6 16 -4 10 6 -6 10 -4 12 10 6 16 -6 16 -4 4 11 -8
9 -9 14 -2 10 15 -9 44 3 37 15 -4 6 -10 5 -15 -3 -5 -8 -9 -9 -9 -4 0 6 5 17
10 25 6 10 10 11 10 3 0 -7 5 -13 10 -13 7 0 7 6 1 19 -9 15 -7 18 12 17 12 0
26 -7 30 -14 5 -7 13 -9 19 -6 6 4 8 2 4 -4 -3 -6 -2 -13 3 -16 11 -7 9 -25
-3 -45 -7 -11 -5 -13 7 -8 19 7 32 -8 16 -19 -8 -4 -9 -3 -5 4 5 8 1 10 -9 5
-13 -4 -14 -8 -4 -14 7 -4 17 -5 21 -3 4 3 9 0 9 -5 1 -6 2 -15 3 -20 0 -5 5
-13 10 -18 5 -5 6 -2 1 5 -5 10 -2 13 11 10 11 -2 18 -11 16 -18 -3 -11 1 -10
16 3 10 9 22 14 27 10 4 -5 5 -2 1 5 -6 10 -11 10 -22 1 -9 -7 -14 -8 -14 -1
0 15 22 21 43 10 12 -6 17 -5 15 4 -2 7 5 12 14 12 11 -1 15 5 13 17 -3 16 -1
17 15 9 15 -8 17 -6 13 9 -3 13 3 23 19 32 12 7 24 12 26 11 6 -5 3 10 -4 16
-4 4 -4 1 1 -7 6 -10 4 -12 -4 -6 -9 5 -7 13 10 31 12 13 26 21 31 18 5 -3 18
2 28 11 17 15 19 15 28 -1 5 -9 7 -25 5 -35 -3 -11 0 -19 7 -19 7 0 10 -8 7
-19 -6 -25 10 -51 28 -45 10 4 15 0 15 -11 0 -13 3 -15 13 -6 14 11 27 5 27
-13 0 -6 -5 -4 -10 4 -5 8 -10 11 -10 5 0 -5 5 -17 10 -25 5 -8 10 -10 10 -4
0 7 7 14 14 17 11 4 13 1 9 -11 -6 -15 -5 -15 10 -3 20 16 23 2 5 -19 -11 -12
-10 -12 4 -1 9 7 23 9 30 5 8 -5 8 -1 -2 11 -14 17 -14 18 6 7 18 -9 25 -8 39
8 10 11 22 17 28 13 5 -3 16 3 24 13 12 16 14 16 11 2 -2 -9 2 -16 7 -16 24 1
32 11 28 31 -4 17 -2 19 5 8 8 -12 14 -12 25 -3 7 7 18 8 22 4 5 -4 5 -1 1 6
-6 11 -11 11 -24 0 -12 -9 -11 -6 2 10 20 23 32 30 21 12 -3 -5 -2 -10 4 -10
5 0 12 6 14 13 4 9 8 8 16 -3 13 -19 14 -9 1 24 -6 17 -6 27 2 32 6 4 8 3 5
-2 -3 -6 -2 -16 4 -24 7 -12 9 -10 9 7 0 20 3 21 25 13 33 -13 32 -5 -2 15
-23 13 -24 15 -6 10 19 -5 22 -3 17 12 -5 15 -4 15 4 3 9 -12 14 -11 34 5 13
11 20 16 16 11 -4 -5 -2 -16 5 -24 9 -13 9 -14 0 -8 -9 5 -12 -1 -9 -23 2 -23
0 -28 -12 -23 -11 4 -14 1 -9 -11 3 -9 3 -17 -2 -17 -5 0 -8 -13 -7 -29 0 -16
4 -27 8 -25 4 2 5 13 3 23 -2 11 3 22 11 25 11 4 12 2 5 -12 -11 -21 -2 -38
19 -37 8 0 19 -4 23 -10 4 -5 5 4 1 20 -6 29 -6 29 11 10 9 -11 14 -14 10 -7
-3 6 -1 12 5 12 6 0 8 5 4 11 -4 7 2 6 17 -2 22 -11 23 -11 11 4 -11 13 -10
15 7 10 13 -3 21 -1 21 6 0 7 -5 9 -12 5 -7 -4 -8 -3 -4 4 4 7 17 12 29 12 17
0 19 2 8 9 -12 7 -12 13 -3 24 7 7 8 17 4 21 -4 4 -2 7 3 6 21 -5 29 1 15 10
-12 8 -11 10 7 10 23 0 36 13 40 44 3 16 1 17 -14 5 -16 -12 -17 -12 -6 2 7 9
9 19 5 24 -4 4 3 2 16 -4 12 -6 22 -10 23 -9 6 24 5 37 -2 32 -5 -3 -6 -10 -3
-16 4 -7 2 -8 -5 -4 -16 10 27 69 45 62 12 -5 12 -2 3 15 -7 14 -7 19 0 15 5
-4 15 3 21 14 6 11 15 20 21 20 6 0 7 -6 3 -12 -4 -8 -3 -10 2 -5 5 5 9 14 9
20 0 7 12 11 25 9 23 -2 24 -2 6 11 -17 13 -17 14 -2 20 10 4 19 1 22 -8 9
-21 25 -19 18 3 -5 13 -4 14 4 3 13 -18 4 -43 -12 -35 -6 3 -2 -2 9 -12 20
-16 20 -16 -3 -11 -13 3 -21 3 -18 0 3 -4 0 -13 -7 -22 -11 -14 -10 -14 6 -2
11 9 17 10 17 2 0 -6 -7 -14 -15 -17 -8 -4 -13 -10 -10 -14 7 -12 -5 -40 -17
-40 -6 0 -6 6 1 14 9 11 9 16 -1 22 -7 4 -10 4 -6 -1 4 -4 3 -14 -3 -22 -6 -7
-8 -13 -5 -13 4 0 1 -10 -6 -22 -7 -13 -11 -27 -10 -32 2 -5 -4 -16 -11 -25
-18 -20 -18 -51 0 -51 8 0 11 -5 8 -10 -4 -6 -10 -8 -15 -5 -9 6 -7 -10 5 -37
4 -10 11 -18 17 -18 5 0 6 6 1 13 -12 19 -12 37 -1 37 6 0 8 -7 4 -15 -3 -8 2
-19 12 -24 16 -9 16 -10 0 -16 -10 -4 -18 -12 -18 -17 0 -7 4 -7 13 -1 17 14
98 13 90 -1 -4 -7 -1 -6 7 1 7 6 18 10 24 9 6 -2 8 -1 4 1 -14 8 -9 23 7 23 8
0 15 -6 15 -12 0 -9 4 -8 10 2 5 8 10 20 10 25 0 6 -5 3 -10 -5 -5 -8 -10 -10
-10 -4 0 11 49 61 56 57 10 -7 24 -2 24 8 0 5 -5 7 -12 3 -7 -5 -8 -3 -3 6 6
10 11 9 23 -6 14 -18 14 -18 8 2 -4 14 0 27 14 39 11 10 17 22 13 28 -4 6 -1
7 6 3 9 -6 8 -13 -5 -27 -9 -10 -13 -19 -8 -19 18 0 36 41 24 55 -8 10 -8 15
1 21 7 4 9 3 6 -3 -4 -6 0 -16 7 -22 12 -10 14 -7 12 14 -3 18 0 23 9 15 8 -7
12 -5 13 5 1 8 3 22 4 30 1 8 5 12 9 9 4 -2 10 0 14 6 3 5 1 10 -6 10 -7 0 -9
3 -5 7 4 5 14 0 21 -10 8 -12 15 -14 20 -8 3 6 1 11 -5 11 -18 0 -5 53 14 56
28 4 59 36 44 45 -10 7 -10 11 1 21 10 10 12 10 7 1 -4 -7 -2 -13 4 -13 6 0
10 8 8 18 -2 9 -9 16 -14 15 -6 -1 -11 5 -11 13 0 10 7 9 24 -8 13 -12 24 -20
24 -17 1 2 2 18 3 35 2 31 -6 36 -32 20 -7 -4 -20 -2 -29 6 -15 11 -16 11 -10
-4 3 -10 2 -18 -3 -18 -6 0 -10 6 -10 13 0 8 -3 7 -10 -3 -6 -9 -5 -20 3 -29
7 -8 7 -12 1 -9 -5 4 -23 -4 -40 -17 -16 -13 -23 -24 -17 -25 8 0 11 -9 9 -22
-3 -13 -5 -27 -5 -33 -1 -5 -5 -3 -11 5 -5 8 -12 11 -16 7 -4 -3 -1 -15 7 -24
13 -16 12 -17 -4 -4 -16 13 -18 12 -13 -12 5 -32 3 -33 -15 -10 -12 14 -12 16
0 8 10 -5 12 -4 7 4 -10 15 -29 3 -22 -15 3 -7 0 -16 -6 -20 -6 -4 -8 -3 -5 2
3 6 -5 10 -18 10 -13 0 -21 -4 -19 -8 3 -4 0 -8 -6 -8 -6 0 -8 -5 -5 -11 4 -6
-2 -5 -13 2 -19 12 -19 14 -4 27 16 13 16 13 -1 8 -11 -3 -16 -2 -12 4 3 6 12
10 20 10 17 0 29 30 16 43 -11 11 -3 37 11 37 6 0 5 -8 -3 -17 -12 -17 -12
-17 5 -1 19 16 13 44 -6 32 -7 -4 -8 -2 -4 5 4 6 12 8 18 5 8 -5 9 -1 5 10 -4
10 -2 16 6 15 6 -1 19 -1 27 0 12 1 13 3 1 10 -11 7 -11 13 2 32 15 21 15 24
-1 43 -10 12 -12 16 -3 11 11 -6 13 -4 8 9 -4 9 -3 15 1 13 11 -7 29 17 26 36
-1 9 2 19 6 22 5 3 7 -3 5 -15 -2 -11 1 -23 7 -26 7 -4 8 -2 4 4 -4 7 -1 12 6
12 10 0 10 2 0 9 -8 4 -13 11 -13 15 3 20 0 26 -11 20 -10 -6 -10 -5 0 8 10
12 9 18 -3 28 -8 7 -12 17 -9 22 4 6 1 14 -6 18 -16 10 -40 2 -40 -12 0 -6 6
-5 15 2 8 7 15 8 15 4 0 -5 -9 -15 -21 -22 -12 -8 -18 -9 -15 -3 4 5 2 12 -4
16 -6 4 -7 12 -4 18 4 7 -7 -1 -24 -17 -18 -17 -32 -35 -32 -42 0 -7 -5 -16
-12 -20 -8 -5 -9 -2 -5 9 3 9 1 19 -5 23 -7 4 -8 3 -4 -4 4 -7 3 -12 -3 -12
-6 0 -8 -6 -5 -13 3 -8 -3 -20 -12 -28 -12 -9 -15 -10 -10 -1 13 21 -9 13 -33
-12 -13 -14 -20 -29 -17 -35 4 -5 1 -13 -5 -17 -8 -4 -9 -3 -5 4 4 7 2 12 -4
12 -6 0 -8 5 -4 12 4 6 3 8 -3 5 -6 -4 -9 -18 -8 -32 2 -14 -1 -23 -5 -20 -5
3 -11 1 -15 -5 -8 -13 -25 -13 -25 1 0 5 4 8 9 5 5 -3 14 1 20 8 9 10 9 16 1
21 -6 4 -14 4 -17 1 -4 -3 -1 -6 6 -6 7 0 9 -5 6 -10 -5 -8 -11 -7 -21 1 -12
10 -14 10 -12 -1 2 -7 -4 -15 -12 -17 -9 -3 -11 -1 -5 4 6 4 10 15 10 23 -1 8
3 20 8 27 5 7 5 18 1 24 -4 8 -3 9 4 5 7 -4 12 -1 12 9 0 10 5 13 13 9 9 -6 9
-5 0 8 -15 18 -5 32 13 17 9 -8 11 -5 7 10 -3 13 -1 21 6 21 7 0 9 5 6 10 -4
6 -11 8 -16 4 -6 -3 -5 3 2 14 7 12 21 23 32 26 15 4 17 8 8 24 -8 16 -7 23 7
33 15 13 16 12 4 -3 -10 -12 -10 -18 -1 -24 7 -4 9 -3 5 4 -3 6 -2 14 4 17 8
5 8 11 0 20 -8 9 -7 13 2 11 7 0 14 3 15 8 1 5 7 13 15 18 10 8 10 9 -2 5 -8
-2 -14 -10 -12 -16 1 -7 -2 -10 -8 -6 -8 5 -7 11 1 21 6 8 8 14 4 14 -4 0 -2
6 4 13 6 8 8 17 4 21 -4 4 0 4 8 1 9 -3 23 3 34 15 10 11 13 20 7 20 -7 0 -12
-5 -12 -11 0 -5 -5 -7 -12 -3 -7 5 -8 3 -3 -7 8 -12 6 -12 -8 0 -18 14 -22 22
-9 19 13 -2 42 14 42 24 0 5 -4 6 -10 3 -5 -3 -7 0 -4 9 3 8 12 12 19 10 17
-7 29 12 14 22 -8 4 -9 3 -5 -4 5 -8 1 -10 -10 -5 -15 5 -15 7 0 15 9 5 22 6
29 2 8 -5 7 -2 -2 9 -11 14 -11 17 0 18 8 1 18 1 22 0 5 -1 6 3 2 9 -3 6 -10
8 -15 5 -5 -3 -12 0 -16 6 -4 7 -3 9 3 6 5 -3 17 3 26 14 18 21 9 26 -12 7
-11 -11 -12 -9 -7 7 6 23 -9 54 -21 42 -4 -5 -1 -12 7 -17 13 -8 13 -11 1 -22
-8 -8 -11 -8 -7 -1 3 7 -6 17 -22 26 -28 13 -29 13 -26 -10 1 -13 -2 -21 -7
-17 -5 3 -7 9 -4 14 3 4 -3 14 -13 21 -15 13 -16 12 -3 -3z m-845 -74 c3 -7
-3 -15 -12 -19 -9 -3 -13 -3 -9 1 4 4 2 12 -3 19 -7 8 -5 12 5 12 8 0 16 -6
19 -13z m575 -98 c8 -10 8 -16 -2 -24 -10 -8 -13 -5 -15 14 -2 28 1 30 17 10z
m-7 -53 c-6 -2 -9 -10 -6 -15 4 -7 2 -8 -5 -4 -13 9 -5 26 12 25 9 0 8 -2 -1
-6z m109 -66 c-10 -9 -11 -8 -5 6 3 10 9 15 12 12 3 -3 0 -11 -7 -18z m-423
-32 c-3 -3 -9 2 -12 12 -6 14 -5 15 5 6 7 -7 10 -15 7 -18z m410 1 c-10 -7
-15 -15 -12 -18 3 -4 1 -9 -4 -12 -6 -3 -9 0 -8 6 3 21 16 38 29 38 7 0 4 -6
-5 -14z m-1378 -46 c-13 -8 -13 -10 -1 -10 8 0 12 -3 8 -6 -3 -3 -11 -3 -17 1
-8 5 -8 11 1 21 6 8 14 12 18 9 3 -3 -1 -10 -9 -15z m66 7 c4 -3 -3 -5 -15 -2
-14 3 -21 -1 -21 -12 0 -9 -3 -14 -6 -10 -4 3 -4 13 -1 21 6 14 30 16 43 3z
m122 -42 c-3 -3 -9 2 -12 12 -6 14 -5 15 5 6 7 -7 10 -15 7 -18z m-267 -12
c11 -15 11 -16 -1 -5 -18 15 -34 16 -24 0 4 -7 3 -8 -5 -4 -12 8 -6 26 8 26 5
0 15 -8 22 -17z m1125 5 c4 -7 3 -8 -4 -4 -7 4 -12 2 -12 -5 0 -7 -3 -10 -6
-6 -6 5 3 27 11 27 2 0 7 -5 11 -12z m-1051 -8 c3 -5 2 -10 -4 -10 -6 0 -8 -8
-4 -17 3 -10 3 -15 -1 -12 -11 10 -16 49 -6 49 5 0 12 -4 15 -10z m1008 -5
c-3 -9 -8 -14 -10 -11 -3 3 -2 9 2 15 9 16 15 13 8 -4z m668 -9 c-9 -11 -9
-15 1 -19 7 -3 3 -4 -9 -4 -21 1 -21 2 -6 19 19 21 31 24 14 4z m-1096 -85 c3
-5 0 -13 -6 -17 -7 -4 -9 -3 -5 4 3 5 0 13 -6 15 -9 4 -10 6 -1 6 6 1 14 -3
18 -8z m1005 -18 c0 -3 -7 -3 -15 1 -8 3 -15 1 -15 -4 0 -6 -5 -10 -11 -10 -8
0 -8 4 1 14 10 13 40 12 40 -1z m-1573 0 c-4 -3 1 -12 11 -20 15 -13 15 -13
-6 -3 -19 9 -23 30 -5 30 4 0 3 -3 0 -7z m1163 3 c0 -2 -7 -7 -16 -10 -8 -3
-12 -2 -9 4 6 10 25 14 25 6z m-1346 -72 c3 -8 2 -12 -4 -9 -6 3 -10 10 -10
16 0 14 7 11 14 -7z m1191 6 c-3 -5 -12 -10 -18 -10 -7 0 -6 4 3 10 19 12 23
12 15 0z m-1032 -15 c-3 -9 -8 -14 -10 -11 -3 3 -2 9 2 15 9 16 15 13 8 -4z
m1050 0 c-3 -9 -8 -14 -10 -11 -3 3 -2 9 2 15 9 16 15 13 8 -4z m30 2 c3 -8
-1 -14 -8 -14 -7 0 -11 6 -8 14 3 7 6 13 8 13 2 0 5 -6 8 -13z m-1107 -6 c-3
-5 1 -11 9 -15 8 -3 17 -1 20 4 4 6 12 10 18 9 9 0 9 -2 0 -6 -7 -2 -13 -9
-13 -14 0 -6 5 -7 10 -4 6 3 10 -3 10 -14 0 -11 -5 -23 -10 -26 -6 -4 -8 -11
-5 -16 4 -5 -1 -9 -10 -9 -9 0 -14 -4 -10 -9 3 -5 1 -12 -5 -16 -6 -4 -8 -11
-5 -16 4 -5 -2 -9 -12 -10 -16 0 -16 -1 2 -8 11 -5 24 -6 29 -3 5 3 6 0 2 -7
-4 -6 -12 -9 -17 -5 -6 3 -8 -5 -5 -20 3 -15 1 -24 -5 -21 -5 4 -7 11 -4 16 4
5 4 9 1 9 -3 0 -10 -9 -16 -19 -7 -14 -7 -22 2 -27 7 -5 8 -3 3 6 -5 9 -4 11
4 6 15 -10 3 -29 -15 -22 -7 3 -16 2 -18 -3 -3 -4 1 -8 9 -9 8 -1 22 -3 30 -4
8 -1 12 -5 9 -9 -2 -4 -13 -6 -24 -4 -12 2 -18 0 -15 -6 4 -5 3 -15 -2 -21
-11 -19 -13 -39 -2 -32 5 3 7 10 4 15 -4 5 2 6 11 2 11 -4 13 -8 6 -11 -7 -2
-12 -11 -12 -19 0 -10 -6 -13 -17 -9 -15 6 -15 5 1 -13 13 -14 14 -21 5 -27
-7 -4 -10 -3 -6 3 4 6 0 13 -7 16 -10 4 -13 0 -11 -14 2 -11 -4 -23 -15 -29
-11 -6 -17 -17 -14 -24 3 -8 1 -17 -5 -21 -7 -4 -8 0 -4 11 5 13 3 15 -8 8
-22 -14 -72 -13 -94 2 -11 8 -14 14 -7 14 6 0 12 5 12 11 0 5 -4 8 -8 5 -5 -3
-9 1 -9 8 0 8 6 12 12 10 6 -3 12 2 12 10 0 8 -5 12 -11 9 -6 -4 -3 3 7 14 18
21 18 22 0 32 -17 10 -17 10 1 11 16 0 17 2 5 17 -13 15 -12 15 9 4 l23 -12
-16 31 c-9 18 -14 34 -11 38 3 3 6 0 6 -7 0 -7 4 -9 10 -6 6 4 7 -1 3 -12 -5
-14 -3 -16 7 -6 11 10 11 15 -1 29 -12 15 -12 17 0 9 11 -6 13 -4 8 9 -5 14
-3 17 8 12 20 -7 19 4 -2 20 -17 12 -16 13 5 9 19 -3 21 -1 12 15 -9 17 -8 19
7 13 10 -3 15 -2 10 2 -4 5 5 17 20 27 16 10 23 18 18 18 -6 0 -16 -5 -23 -12
-9 -9 -12 -9 -12 0 0 7 7 15 16 19 8 3 13 12 10 19 -3 8 0 11 10 7 9 -3 14 0
12 8 -2 8 3 13 11 11 8 -2 11 3 8 12 -7 19 9 31 19 15 5 -8 3 -9 -6 -4 -9 5
-11 4 -6 -4 4 -6 12 -9 17 -5 5 3 7 10 4 15 -6 9 2 29 11 29 3 0 3 -4 0 -9z
m1474 -1 c0 -5 -2 -10 -4 -10 -3 0 -8 5 -11 10 -3 6 -1 10 4 10 6 0 11 -4 11
-10z m292 1 c-8 -4 -13 -12 -12 -17 1 -5 -4 -10 -12 -12 -9 -2 -8 0 2 7 8 6
11 11 7 11 -5 0 -5 5 -2 10 3 6 12 10 18 10 8 0 8 -3 -1 -9z m-849 -36 c-6
-17 -23 -20 -23 -5 0 6 5 10 11 10 5 0 7 5 3 12 -4 7 -3 8 4 4 6 -4 9 -13 5
-21z m396 22 c-2 -1 -13 -9 -24 -17 -19 -14 -19 -14 -6 3 7 9 18 17 24 17 6 0
8 -1 6 -3z m648 -40 c4 -21 3 -21 -11 -2 -8 11 -12 24 -9 28 7 12 16 0 20 -26z
m-100 -38 c-9 -6 -14 -16 -11 -22 5 -8 2 -7 -7 1 -12 11 -12 14 1 22 8 5 20
10 25 10 6 -1 2 -5 -8 -11z m-1821 -24 c-8 -8 -18 -15 -22 -15 -3 0 -1 7 6 15
7 8 17 15 22 15 5 0 3 -7 -6 -15z m819 -14 c-3 -6 -11 -11 -16 -11 -5 0 -4 6
3 14 14 16 24 13 13 -3z m1006 -4 c-10 -9 -11 -8 -5 6 3 10 9 15 12 12 3 -3 0
-11 -7 -18z m43 2 c-3 -5 -10 -7 -15 -3 -5 3 -7 10 -3 15 3 5 10 7 15 3 5 -3
7 -10 3 -15z m-206 -31 c-2 -6 -10 -13 -16 -14 -7 -1 -8 0 -2 3 5 2 8 9 4 14
-3 5 0 9 6 9 7 0 10 -5 8 -12z m-1048 -18 c0 -5 -5 -10 -11 -10 -5 0 -7 5 -4
10 3 6 8 10 11 10 2 0 4 -4 4 -10z m507 -42 c2 -17 0 -19 -7 -8 -5 8 -6 18 -4
22 8 12 10 10 11 -14z m569 -25 c-10 -10 -19 5 -10 18 6 11 8 11 12 0 2 -7 1
-15 -2 -18z m-591 7 c-3 -5 -12 -10 -18 -10 -7 0 -6 4 3 10 19 12 23 12 15 0z
m-1495 -33 c0 -8 -7 -14 -15 -14 -11 0 -12 4 -4 14 6 7 13 13 15 13 2 0 4 -6
4 -13z m1847 -17 c-1 -11 -7 -20 -14 -20 -11 0 -11 4 -1 20 7 11 14 20 15 20
1 0 1 -9 0 -20z m-414 -14 c4 -10 1 -13 -8 -9 -8 3 -12 9 -9 14 7 12 11 11 17
-5z m73 -18 c3 -4 -1 -5 -10 -4 -8 1 -18 5 -22 8 -3 4 1 5 10 4 8 -1 18 -5 22
-8z m194 -2 c0 -3 -4 -8 -10 -11 -5 -3 -10 -1 -10 4 0 6 5 11 10 11 6 0 10 -2
10 -4z m117 -30 c-3 -8 -1 -17 6 -20 9 -3 9 -5 0 -5 -15 -1 -26 16 -18 29 9
15 18 12 12 -4z m-790 -118 c2 -17 0 -19 -7 -8 -5 8 -6 18 -4 22 8 12 10 10
11 -14z m-722 -8 c3 -5 1 -10 -4 -10 -6 0 -11 5 -11 10 0 6 2 10 4 10 3 0 8
-4 11 -10z m976 -33 c-10 -9 -11 -8 -5 6 3 10 9 15 12 12 3 -3 0 -11 -7 -18z
m-761 9 c0 -3 -4 -8 -10 -11 -5 -3 -10 -1 -10 4 0 6 5 11 10 11 6 0 10 -2 10
-4z m-64 -48 c3 -4 -1 -5 -10 -4 -8 1 -18 5 -22 8 -3 4 1 5 10 4 8 -1 18 -5
22 -8z"/>
<path d="M2027 2029 c7 -7 15 -10 18 -7 3 3 -2 9 -12 12 -14 6 -15 5 -6 -5z"/>
<path d="M1973 1688 c1 -7 -3 -12 -9 -11 -6 1 -11 -5 -11 -13 0 -12 4 -11 18
2 10 9 16 21 13 25 -8 13 -14 11 -11 -3z"/>
<path d="M1885 1671 c-6 -11 13 -26 22 -17 4 3 0 6 -8 6 -11 0 -11 2 1 10 9 6
10 10 3 10 -6 0 -14 -4 -18 -9z"/>
<path d="M3793 2705 c0 -8 4 -12 9 -9 5 3 6 10 3 15 -9 13 -12 11 -12 -6z"/>
<path d="M897 2703 c-11 -17 13 -28 26 -13 9 10 9 11 0 6 -6 -3 -13 -1 -15 6
-3 9 -6 9 -11 1z"/>
<path d="M545 2678 c-6 -13 -16 -22 -23 -20 -7 1 -12 -2 -12 -7 0 -6 9 -9 19
-8 11 0 17 5 14 11 -3 5 -1 6 6 2 6 -4 9 -12 5 -17 -3 -5 -10 -7 -15 -4 -5 4
-9 1 -9 -5 0 -6 -4 -9 -9 -5 -15 9 -23 -13 -12 -32 8 -14 11 -15 11 -3 0 12 3
11 11 -3 5 -9 7 -23 3 -30 -5 -7 -1 -7 10 2 12 10 14 16 5 21 -8 6 -6 16 7 39
15 26 16 33 5 40 -9 6 -10 11 -2 15 13 8 15 26 3 26 -4 0 -12 -10 -17 -22z"/>
<path d="M2695 2619 c-4 -6 -5 -12 -2 -15 2 -3 7 2 10 11 7 17 1 20 -8 4z"/>
<path d="M425 2600 c-4 -6 -12 -7 -18 -3 -7 4 -6 -1 2 -10 15 -19 24 -16 27 8
3 17 -2 19 -11 5z"/>
<path d="M626 2551 c-3 -5 0 -16 9 -24 13 -13 13 -16 0 -21 -23 -9 -18 -21 11
-22 20 -2 24 2 18 15 -3 9 -7 25 -9 35 -2 22 -20 32 -29 17z"/>
<path d="M3227 2547 c-3 -9 2 -13 16 -12 11 1 22 7 23 14 2 7 0 7 -3 1 -3 -8
-9 -8 -18 0 -9 8 -14 7 -18 -3z"/>
<path d="M945 2530 c-4 -6 -11 -7 -17 -4 -7 5 -8 2 -2 -7 5 -8 8 -23 7 -34 -1
-16 -1 -17 3 -2 3 10 10 14 17 10 9 -5 8 -2 0 8 -10 12 -10 18 -1 27 7 7 9 12
6 12 -4 0 -10 -5 -13 -10z"/>
<path d="M756 2511 c-4 -5 -2 -12 3 -15 5 -4 12 -2 15 3 4 5 2 12 -3 15 -5 4
-12 2 -15 -3z"/>
<path d="M2965 2502 c-5 -13 -3 -14 6 -5 6 6 18 9 25 6 8 -3 14 -1 14 4 0 16
-38 12 -45 -5z"/>
<path d="M0 2499 c0 -5 5 -7 11 -3 8 4 9 -1 4 -17 -6 -19 -5 -22 5 -12 7 6 10
19 7 27 -7 18 -27 22 -27 5z"/>
<path d="M2590 2485 c-11 -13 -10 -14 4 -9 9 3 16 10 16 15 0 13 -6 11 -20 -6z"/>
<path d="M1855 2460 c-10 -11 -14 -20 -9 -20 5 0 15 9 22 20 7 11 11 20 9 20
-2 0 -12 -9 -22 -20z"/>
<path d="M33 2445 c0 -8 4 -12 8 -9 4 2 9 -2 12 -8 2 -7 7 -10 11 -7 3 3 -2
13 -12 22 -15 14 -19 15 -19 2z"/>
<path d="M2410 2429 c0 -5 -3 -8 -7 -6 -5 1 -9 -1 -10 -5 -6 -18 -2 -20 14 -7
9 8 18 13 20 12 7 -6 23 -2 23 5 0 4 -9 8 -20 9 -11 1 -20 -2 -20 -8z"/>
<path d="M666 2408 c3 -4 11 -5 19 -1 21 7 19 12 -4 10 -11 0 -18 -5 -15 -9z"/>
<path d="M2278 2403 c7 -3 16 -2 19 1 4 3 -2 6 -13 5 -11 0 -14 -3 -6 -6z"/>
<path d="M1340 2396 c0 -2 8 -10 18 -17 15 -13 16 -12 3 4 -13 16 -21 21 -21
13z"/>
<path d="M3174 2389 c-3 -6 -1 -16 5 -22 9 -9 10 -7 5 8 -7 18 -6 19 12 5 18
-14 18 -14 5 3 -16 20 -18 20 -27 6z"/>
<path d="M1117 2383 c-10 -9 -9 -23 1 -23 5 0 9 7 9 15 0 17 -1 18 -10 8z"/>
<path d="M396 2364 c-22 -22 -20 -31 2 -11 10 10 22 14 27 10 4 -5 5 -2 1 5
-9 15 -11 15 -30 -4z"/>
<path d="M1515 2370 c-3 -5 -3 -10 2 -10 4 0 1 -5 -7 -10 -8 -5 -10 -10 -4
-10 17 0 37 27 25 34 -5 4 -12 2 -16 -4z"/>
<path d="M1790 2349 c-7 -11 -9 -23 -6 -26 3 -3 8 2 12 11 3 9 10 13 15 10 5
-3 6 2 3 10 -8 21 -11 20 -24 -5z"/>
<path d="M2875 2360 c-3 -5 -1 -10 4 -10 6 0 11 5 11 10 0 6 -2 10 -4 10 -3 0
-8 -4 -11 -10z"/>
<path d="M2907 2359 c7 -7 15 -10 18 -7 3 3 -2 9 -12 12 -14 6 -15 5 -6 -5z"/>
<path d="M2790 2348 c0 -4 4 -8 9 -8 6 0 12 4 15 8 3 5 -1 9 -9 9 -8 0 -15 -4
-15 -9z"/>
<path d="M3436 2333 c-6 -14 -5 -15 5 -6 7 7 10 15 7 18 -3 3 -9 -2 -12 -12z"/>
<path d="M148 2319 c6 -9 8 -20 4 -24 -4 -5 -2 -5 5 -2 6 4 14 1 16 -5 3 -8 6
-8 6 -2 1 6 -9 19 -21 30 -14 12 -18 13 -10 3z"/>
<path d="M3200 2310 c-8 -5 -12 -12 -9 -15 4 -3 12 1 19 10 14 17 11 19 -10 5z"/>
<path d="M3625 2300 c-3 -5 -1 -10 4 -10 6 0 11 5 11 10 0 6 -2 10 -4 10 -3 0
-8 -4 -11 -10z"/>
<path d="M1970 2287 c0 -17 54 -58 75 -56 6 0 4 3 -3 6 -6 2 -10 9 -7 14 4 5
0 7 -7 4 -16 -6 -31 4 -46 30 -10 18 -11 18 -12 2z"/>
<path d="M3020 2278 c-14 -13 -26 -22 -27 -20 -2 1 -9 2 -15 2 -9 0 -8 -3 2
-10 10 -6 21 -3 37 12 12 11 26 17 32 14 7 -4 8 -1 5 8 -8 20 -6 20 -34 -6z"/>
<path d="M3430 2290 c0 -5 5 -10 11 -10 5 0 7 5 4 10 -3 6 -8 10 -11 10 -2 0
-4 -4 -4 -10z"/>
<path d="M3876 2281 c-3 -5 1 -14 9 -21 8 -7 13 -16 10 -20 -3 -4 3 -14 13
-21 15 -13 16 -12 4 3 -11 14 -10 18 3 25 15 9 15 11 0 23 -13 11 -14 10 -8
-6 6 -17 5 -17 -10 -5 -9 7 -14 17 -11 22 3 5 3 9 0 9 -3 0 -7 -4 -10 -9z"/>
<path d="M3250 2271 c0 -5 5 -13 10 -16 6 -3 10 -2 10 4 0 5 -4 13 -10 16 -5
3 -10 2 -10 -4z"/>
<path d="M1971 2243 c7 -12 15 -20 18 -17 3 2 -3 12 -13 22 -17 16 -18 16 -5
-5z"/>
<path d="M2061 2244 c0 -11 3 -14 6 -6 3 7 2 16 -1 19 -3 4 -6 -2 -5 -13z"/>
<path d="M3400 2246 c0 -2 7 -7 16 -10 8 -3 12 -2 9 4 -6 10 -25 14 -25 6z"/>
<path d="M3260 2236 c0 -2 6 -9 14 -15 10 -9 17 -7 27 6 13 16 12 17 -3 4 -12
-9 -18 -10 -18 -2 0 6 -4 11 -10 11 -5 0 -10 -2 -10 -4z"/>
<path d="M1443 2205 c-10 -10 -10 -15 0 -23 9 -8 12 -4 13 14 1 13 1 24 0 24
0 -1 -6 -7 -13 -15z"/>
<path d="M3403 2205 c0 -8 4 -12 9 -9 4 3 8 9 8 15 0 5 -4 9 -8 9 -5 0 -9 -7
-9 -15z"/>
<path d="M346 2196 c3 -9 13 -16 22 -16 8 0 13 1 11 3 -2 1 -12 9 -22 16 -15
12 -17 12 -11 -3z"/>
<path d="M2055 2190 c3 -5 -1 -10 -9 -10 -9 0 -16 -5 -16 -10 0 -7 7 -7 20 0
17 9 20 30 4 30 -3 0 -2 -4 1 -10z"/>
<path d="M1043 2166 c-10 -11 -9 -16 5 -21 9 -3 13 -3 9 1 -4 4 -2 13 4 21 15
17 -2 16 -18 -1z"/>
<path d="M3569 2163 c-12 -16 -12 -17 2 -6 9 7 20 9 24 5 5 -4 5 -1 1 6 -9 16
-11 15 -27 -5z"/>
<path d="M2358 2153 c7 -3 16 -2 19 1 4 3 -2 6 -13 5 -11 0 -14 -3 -6 -6z"/>
<path d="M3860 2130 c-7 -14 -7 -20 0 -20 5 0 10 6 10 14 0 8 6 17 13 19 9 4
9 6 0 6 -7 1 -17 -8 -23 -19z"/>
<path d="M3366 2115 c-16 -12 -17 -15 -4 -15 9 0 18 7 22 15 7 18 6 18 -18 0z"/>
<path d="M3995 2090 c-3 -5 -1 -10 4 -10 6 0 11 5 11 10 0 6 -2 10 -4 10 -3 0
-8 -4 -11 -10z"/>
<path d="M2790 2070 c0 -5 5 -10 11 -10 5 0 7 5 4 10 -3 6 -8 10 -11 10 -2 0
-4 -4 -4 -10z"/>
<path d="M1795 1990 c-3 -5 -1 -10 4 -10 6 0 11 5 11 10 0 6 -2 10 -4 10 -3 0
-8 -4 -11 -10z"/>
<path d="M4030 1989 c0 -5 5 -7 10 -4 6 3 10 8 10 11 0 2 -4 4 -10 4 -5 0 -10
-5 -10 -11z"/>
<path d="M950 1969 c0 -5 5 -7 10 -4 6 3 10 8 10 11 0 2 -4 4 -10 4 -5 0 -10
-5 -10 -11z"/>
<path d="M1784 1962 c3 -5 1 -12 -5 -14 -7 -2 -10 -9 -8 -16 3 -8 9 -5 16 7 9
15 10 22 1 27 -6 4 -8 3 -4 -4z"/>
<path d="M3280 1959 c0 -5 5 -7 10 -4 6 3 10 8 10 11 0 2 -4 4 -10 4 -5 0 -10
-5 -10 -11z"/>
<path d="M3885 1961 c-3 -5 -2 -12 3 -15 5 -3 9 1 9 9 0 17 -3 19 -12 6z"/>
<path d="M2405 1951 c-3 -5 -2 -12 3 -15 5 -3 9 1 9 9 0 17 -3 19 -12 6z"/>
<path d="M875 1919 c-4 -5 2 -6 11 -2 12 4 15 3 10 -5 -10 -16 -1 -15 12 1 8
10 6 13 -8 14 -11 1 -22 -2 -25 -8z"/>
<path d="M3944 1908 c0 -16 2 -16 18 -1 10 9 18 17 18 17 0 1 -8 2 -18 2 -10
0 -18 -8 -18 -18z"/>
<path d="M2590 1895 c-7 -9 -8 -15 -2 -15 5 0 12 7 16 15 3 8 4 15 2 15 -2 0
-9 -7 -16 -15z"/>
<path d="M804 1879 c-19 -22 -19 -22 4 -8 12 8 22 17 22 21 0 12 -6 9 -26 -13z"/>
<path d="M1260 1890 c0 -5 9 -8 20 -7 21 1 18 10 -5 13 -8 1 -15 -2 -15 -6z"/>
<path d="M3466 1861 c-4 -5 -2 -12 3 -15 5 -4 12 -2 15 3 4 5 2 12 -3 15 -5 4
-12 2 -15 -3z"/>
<path d="M3906 1852 c-3 -5 1 -9 9 -9 8 0 12 4 9 9 -3 4 -7 8 -9 8 -2 0 -6 -4
-9 -8z"/>
<path d="M2342 1845 c4 -4 -2 -16 -14 -26 -11 -11 -17 -19 -11 -19 5 0 18 9
27 19 14 15 15 21 4 27 -7 4 -10 4 -6 -1z"/>
<path d="M2563 1826 c3 -7 0 -20 -6 -27 -10 -11 -9 -11 5 0 15 11 15 41 1 41
-3 0 -3 -6 0 -14z"/>
<path d="M1045 1810 c-3 -5 -3 -10 2 -10 4 0 3 -4 -4 -8 -9 -6 -7 -11 6 -19
15 -10 22 -8 35 6 13 15 14 18 1 18 -8 0 -12 -4 -9 -9 3 -4 -2 -8 -10 -8 -9 0
-13 7 -11 20 4 22 0 26 -10 10z"/>
<path d="M1545 1810 c4 -6 11 -8 16 -5 14 9 11 15 -7 15 -8 0 -12 -5 -9 -10z"/>
<path d="M3192 1717 c-6 -7 -7 -18 -3 -26 6 -9 11 -10 15 -2 4 6 2 11 -5 11
-8 0 -8 4 1 15 7 8 10 15 7 15 -2 0 -9 -6 -15 -13z"/>
<path d="M2686 1712 c-2 -4 -1 -14 3 -21 6 -9 11 -10 15 -2 4 6 2 11 -4 11 -6
0 -8 5 -5 10 3 6 4 10 1 10 -3 0 -7 -4 -10 -8z"/>
<path d="M2630 1685 c-7 -9 -8 -15 -2 -15 5 0 12 7 16 15 3 8 4 15 2 15 -2 0
-9 -7 -16 -15z"/>
<path d="M3365 1690 c-3 -5 -1 -10 4 -10 6 0 11 5 11 10 0 6 -2 10 -4 10 -3 0
-8 -4 -11 -10z"/>
<path d="M2333 1677 c10 -8 14 -17 8 -18 -5 -2 1 -12 14 -21 15 -11 22 -13 21
-5 -3 20 -16 36 -39 47 -20 10 -21 10 -4 -3z"/>
<path d="M3730 1674 c-9 -10 -9 -14 -1 -14 6 0 11 4 11 10 0 5 7 7 15 4 8 -4
15 -4 15 -1 0 13 -30 14 -40 1z"/>
<path d="M1486 1661 c-3 -5 1 -11 9 -14 9 -4 12 -1 8 9 -6 16 -10 17 -17 5z"/>
<path d="M3894 1647 c-2 -7 -14 -13 -24 -14 -13 -1 -18 2 -14 9 5 7 2 8 -7 2
-8 -5 -17 -9 -21 -9 -3 0 -10 -4 -15 -9 -5 -5 -3 -6 5 -2 6 4 12 2 12 -3 0 -6
5 -11 11 -11 5 0 7 5 3 12 -4 7 -3 8 5 4 16 -10 2 -29 -18 -23 -9 2 -22 -2
-29 -10 -8 -8 -9 -13 -2 -13 6 0 8 -4 5 -10 -3 -5 -1 -10 5 -10 7 0 10 6 7 13
-3 8 4 13 22 14 14 0 18 -1 9 -4 -9 -2 -20 -13 -23 -24 -4 -11 -11 -16 -18
-12 -8 4 -7 1 1 -9 11 -14 10 -18 -5 -27 -10 -6 -13 -11 -6 -11 6 0 15 5 18
10 5 8 11 7 21 -1 8 -7 14 -7 14 -1 0 5 -8 13 -17 16 -22 9 -2 30 31 32 18 0
23 -3 18 -15 -3 -9 9 -1 27 17 30 30 34 31 46 16 10 -14 13 -15 20 -3 5 8 4
11 0 6 -5 -4 -17 5 -27 20 -10 16 -18 22 -18 16 0 -7 -4 -13 -10 -13 -12 0 -9
22 5 33 6 5 2 6 -9 3 -13 -5 -17 -2 -12 9 3 8 3 15 0 15 -2 0 -7 -6 -10 -13z
m11 -38 c0 -8 8 -13 18 -13 9 1 14 -2 11 -7 -9 -15 -31 -10 -38 8 -6 15 -8 15
-16 3 -7 -11 -9 -10 -8 6 2 24 33 26 33 3z"/>
<path d="M3580 1600 c18 -12 30 -13 30 -2 0 4 -10 9 -22 9 -18 2 -20 0 -8 -7z"/>
<path d="M1650 1592 c0 -4 10 -13 23 -21 22 -14 22 -14 3 8 -20 22 -26 25 -26
13z"/>
<path d="M2053 1571 c0 -11 5 -18 9 -15 4 3 5 11 1 19 -7 21 -12 19 -10 -4z"/>
<path d="M1195 1570 c3 -5 8 -10 11 -10 2 0 4 5 4 10 0 6 -5 10 -11 10 -5 0
-7 -4 -4 -10z"/>
<path d="M980 1555 c-9 -10 -9 -15 -1 -15 6 0 11 5 11 11 0 5 5 7 12 3 7 -4 8
-3 4 4 -9 15 -11 15 -26 -3z"/>
<path d="M2934 1559 c-3 -6 -3 -13 0 -16 3 -4 6 -1 6 5 0 6 7 9 15 6 8 -4 15
-4 15 -1 0 11 -30 16 -36 6z"/>
<path d="M3900 1536 c-11 -17 -14 -18 -24 -5 -10 13 -17 15 -43 10 -4 0 3 -8
15 -17 12 -8 19 -20 16 -26 -4 -7 -2 -8 4 -4 7 4 12 2 12 -5 0 -7 8 -3 18 8 9
11 24 18 32 15 9 -2 7 2 -5 12 -23 18 -14 21 18 5 20 -9 21 -9 4 4 -14 11 -15
16 -5 20 7 3 3 5 -8 4 -12 -1 -27 -10 -34 -21z m-1 -13 c14 11 14 10 2 -6 -10
-13 -17 -15 -27 -6 -8 6 -14 14 -14 17 0 3 5 1 12 -6 9 -9 15 -9 27 1z"/>
<path d="M3776 1532 c-3 -5 1 -9 9 -9 8 0 12 4 9 9 -3 4 -7 8 -9 8 -2 0 -6 -4
-9 -8z"/>
<path d="M400 1520 c-9 -6 -10 -10 -3 -10 6 0 15 5 18 10 8 12 4 12 -15 0z"/>
<path d="M1920 1515 c-6 -8 -10 -19 -8 -24 1 -6 8 1 15 14 13 28 11 31 -7 10z"/>
<path d="M1750 1489 c0 -5 5 -7 10 -4 6 3 10 8 10 11 0 2 -4 4 -10 4 -5 0 -10
-5 -10 -11z"/>
<path d="M3827 1489 c7 -7 15 -10 18 -7 3 3 -2 9 -12 12 -14 6 -15 5 -6 -5z"/>
<path d="M3355 1480 c-4 -6 -11 -8 -16 -5 -13 9 -11 -9 4 -25 10 -12 9 -12 -5
-1 -10 7 -24 11 -32 8 -11 -4 -13 -1 -9 11 6 15 5 15 -10 3 -9 -7 -14 -18 -10
-25 4 -6 -1 -5 -10 3 -10 7 -32 14 -50 15 -18 1 -38 5 -45 10 -15 9 -32 -1
-31 -17 0 -9 2 -9 6 1 2 6 9 12 15 12 6 0 5 -6 -2 -15 -10 -12 -16 -13 -26 -4
-8 6 -11 15 -8 20 3 5 0 9 -6 9 -7 0 -10 -7 -7 -15 4 -8 1 -17 -5 -21 -7 -4
-8 -3 -4 4 5 8 0 12 -13 12 -30 0 -34 1 -56 12 -19 9 -19 9 -1 -6 10 -9 23
-13 27 -10 5 3 9 0 9 -6 0 -7 -8 -9 -21 -5 -13 4 -19 3 -16 -2 4 -5 0 -10 -7
-10 -8 0 -12 6 -9 13 2 6 -1 15 -8 20 -7 4 -10 3 -6 -3 4 -6 -3 -19 -15 -29
-12 -11 -18 -14 -15 -7 9 14 -9 27 -18 13 -4 -6 -10 -8 -14 -6 -4 3 -13 1 -20
-4 -9 -5 -27 -1 -48 11 -19 11 -32 15 -28 9 3 -5 0 -10 -9 -10 -8 0 -16 5 -18
12 -3 7 -7 5 -11 -6 -4 -9 -3 -15 2 -11 5 3 13 0 17 -7 4 -7 4 -10 -1 -6 -4 4
-15 2 -23 -5 -9 -6 -13 -7 -9 -1 3 6 -3 18 -14 27 -27 24 -36 21 -13 -4 l19
-22 -30 15 c-31 16 -55 14 -55 -4 0 -7 5 -6 14 1 11 9 16 9 22 0 4 -7 3 -9 -4
-5 -6 3 -14 2 -17 -4 -5 -8 -11 -7 -21 1 -7 6 -12 15 -9 19 6 10 -21 7 -31 -3
-14 -14 -26 -7 -19 11 5 14 4 15 -6 5 -19 -19 4 -41 24 -24 12 9 16 8 20 -3 4
-9 1 -18 -5 -22 -6 -4 -8 -3 -5 3 4 6 -10 9 -36 9 -28 -1 -41 -5 -39 -13 3
-19 -6 -16 -18 7 -9 16 -8 18 5 14 8 -4 15 -2 15 4 0 6 -8 9 -17 7 -10 -1 -17
-9 -17 -18 1 -15 -20 -17 -33 -2 -4 4 -3 5 3 2 6 -3 11 0 11 7 0 11 -4 12 -19
3 -10 -7 -16 -17 -14 -22 2 -6 -5 -11 -15 -11 -13 0 -15 3 -7 13 7 9 7 13 0
13 -6 0 -16 -8 -22 -17 -10 -16 -11 -16 -6 -1 2 9 -1 19 -8 21 -8 3 -13 -1
-12 -11 1 -11 -5 -16 -18 -14 -13 2 -16 -1 -10 -10 6 -10 5 -11 -8 -1 -8 7
-18 10 -22 6 -3 -4 -16 -8 -28 -10 -18 -3 -19 -1 -8 12 11 13 10 14 -4 9 -9
-3 -16 -11 -16 -17 0 -6 -6 -3 -13 8 -11 14 -16 15 -22 5 -5 -9 -4 -11 3 -6 7
4 12 2 12 -3 0 -6 -7 -11 -15 -11 -8 0 -15 5 -15 11 0 5 -5 7 -10 4 -6 -4 -8
-11 -4 -17 3 -5 -8 -2 -25 7 -34 17 -51 13 -51 -13 0 -14 -2 -15 -9 -2 -6 8
-7 18 -4 24 4 5 1 6 -6 2 -7 -5 -10 -15 -7 -23 4 -9 1 -13 -6 -10 -7 2 -12 13
-10 23 2 15 1 16 -7 4 -5 -8 -7 -18 -4 -23 3 -5 0 -7 -8 -5 -8 3 -13 11 -11
18 2 11 -1 10 -13 0 -20 -17 -45 -22 -45 -9 0 5 -5 9 -11 9 -8 0 -8 -4 0 -14
12 -15 28 -16 48 -3 9 6 11 3 7 -7 -6 -16 -29 -16 -68 0 -15 6 -17 4 -11 -7 4
-8 4 -11 0 -6 -5 4 -18 1 -31 -7 -22 -15 -34 -12 -34 8 0 6 4 5 9 -2 6 -11 10
-11 19 0 8 10 8 18 0 28 -8 12 -9 11 -4 -4 5 -14 2 -17 -9 -12 -9 3 -18 0 -21
-8 -3 -8 -14 -12 -25 -9 -12 3 -21 -1 -25 -12 -5 -11 -9 -13 -14 -6 -8 13 -50
23 -50 12 0 -4 -16 -13 -35 -20 -21 -7 -33 -17 -29 -24 3 -7 -3 -2 -14 10 -17
19 -21 20 -26 7 -4 -10 -2 -13 7 -8 6 4 3 -2 -7 -14 -15 -18 -22 -20 -33 -10
-20 16 -50 17 -50 2 0 -10 6 -10 21 -3 21 10 21 10 1 -6 -18 -14 -21 -14 -31
0 -10 14 -13 14 -24 0 -11 -13 -10 -15 6 -9 17 5 17 4 3 -8 -9 -7 -16 -16 -17
-21 0 -4 -2 -11 -5 -15 -2 -4 -2 -1 -1 6 2 6 -1 12 -6 12 -6 0 -10 -5 -10 -11
0 -5 -6 -7 -12 -3 -10 6 -10 5 -1 -7 10 -12 9 -20 -2 -36 -8 -11 -11 -23 -7
-27 3 -4 -2 -4 -12 0 -13 5 -17 4 -13 -4 9 -13 -12 -62 -27 -62 -6 0 -6 4 1
11 6 6 9 18 6 27 -5 11 -3 13 7 7 9 -5 11 -4 6 4 -10 15 -29 3 -22 -14 2 -7 2
-16 -2 -20 -7 -6 -8 -10 -11 -36 0 -5 -7 -7 -13 -3 -7 4 -10 4 -6 -1 4 -4 4
-13 -2 -19 -6 -8 -3 -12 12 -13 29 -3 33 -10 17 -30 -12 -15 -12 -16 5 -10 10
4 24 3 31 -3 10 -8 15 -8 21 1 4 8 3 9 -4 5 -7 -4 -12 -2 -12 3 0 6 9 11 21
11 11 0 17 -4 14 -10 -3 -6 -2 -10 3 -10 6 0 13 7 16 16 9 24 7 31 -4 14 -7
-11 -10 -11 -10 -2 0 12 56 39 73 34 4 -1 7 4 7 10 0 7 5 5 11 -5 10 -18 12
-18 32 4 12 13 21 27 19 32 -1 5 2 5 8 2 8 -5 6 -13 -4 -24 -14 -15 -14 -18
-2 -18 8 0 14 5 13 11 -1 5 8 10 20 11 12 0 28 7 35 15 11 12 11 12 -4 1 -15
-11 -18 -11 -18 0 0 11 -3 11 -11 -1 -8 -12 -10 -12 -7 -1 6 20 50 21 66 2 11
-14 11 -14 6 2 -5 13 -1 17 16 17 12 0 18 4 15 10 -4 6 -1 9 6 8 7 -2 13 2 14
9 0 6 3 14 7 18 8 9 5 -16 -5 -32 -4 -6 -2 -15 4 -19 8 -5 9 -3 4 6 -6 10 -3
12 12 8 12 -3 20 0 20 8 0 7 -4 11 -9 8 -14 -9 -9 3 8 16 12 11 15 11 12 0 -2
-7 3 -15 10 -17 8 -3 10 1 5 14 -7 17 -6 17 22 -1 22 -14 26 -15 17 -4 -9 11
-10 18 -2 23 5 3 10 2 10 -2 0 -5 11 -9 24 -9 13 0 23 5 22 11 -1 5 3 10 9 10
5 0 8 -6 7 -14 -2 -7 1 -10 7 -6 6 3 11 14 11 23 1 16 1 16 11 0 5 -10 15 -18
22 -18 8 0 8 3 2 8 -5 4 -11 14 -13 22 -3 12 -1 12 9 3 6 -6 18 -9 27 -6 10 4
13 2 8 -5 -3 -6 -1 -14 6 -18 7 -4 10 -4 6 1 -4 4 -3 14 3 21 7 8 6 14 -2 20
-8 5 -9 3 -4 -6 5 -9 4 -11 -4 -6 -20 13 -3 23 35 19 21 -1 43 2 49 7 12 10
33 9 53 -3 6 -5 12 -4 12 0 0 5 -6 15 -12 23 -11 12 -10 12 4 2 13 -10 17 -10
22 0 3 7 3 2 0 -12 -4 -21 -3 -22 6 -8 6 10 17 15 27 11 11 -4 14 -3 9 5 -5 9
0 9 20 2 23 -9 25 -9 15 4 -9 11 -9 16 0 22 8 4 9 3 5 -4 -9 -16 7 -15 22 0 7
7 12 8 12 4 0 -5 8 -2 17 5 11 10 14 10 9 2 -4 -7 -3 -13 3 -13 5 0 15 8 20
18 6 9 11 12 11 6 0 -7 7 -15 16 -18 12 -5 15 -2 10 11 -5 15 -4 15 9 -1 9
-12 15 -15 15 -7 0 11 3 11 15 1 13 -11 14 -10 10 1 -4 10 3 15 25 15 17 1 27
-2 24 -8 -4 -6 3 -5 15 2 12 6 27 9 34 7 7 -2 18 5 25 17 12 20 13 19 8 -9 -3
-16 -3 -24 0 -17 3 6 11 9 16 6 7 -4 8 -2 4 4 -5 8 1 12 14 12 13 0 19 -4 14
-12 -4 -7 -3 -8 5 -4 6 4 9 12 6 17 -6 9 1 12 30 12 36 0 46 -4 40 -13 -10
-16 1 -11 16 7 12 15 12 16 -1 8 -13 -8 -13 -6 -1 8 17 21 31 13 26 -15 -3
-11 -1 -17 3 -14 4 4 7 13 7 18 0 6 6 13 14 16 8 3 11 0 8 -5 -3 -5 0 -10 8
-10 8 0 12 4 9 8 -9 15 31 15 48 1 16 -13 18 -13 24 2 3 9 10 13 16 10 5 -3
22 -7 38 -8 19 -1 26 2 23 11 -3 7 0 13 6 13 6 0 11 -4 11 -9 0 -5 7 -12 16
-15 15 -6 15 -4 3 10 -13 16 -12 16 11 4 l25 -13 -20 24 c-11 13 -13 18 -4 12
21 -17 81 -12 74 5 -3 7 0 10 6 7 5 -4 7 -16 4 -28 -4 -13 -3 -17 2 -11 4 6
16 10 26 8 9 -1 17 2 17 8 0 6 -8 7 -17 3 -14 -5 -15 -4 -6 6 10 10 17 9 34
-7 13 -10 19 -14 16 -7 -4 7 1 14 13 18 25 8 40 -1 41 -23 0 -14 2 -13 8 3 6
14 3 24 -8 33 -14 11 -13 11 7 2 12 -6 20 -15 17 -19 -2 -5 3 -15 13 -22 15
-12 16 -12 4 2 -10 13 -9 19 3 29 13 11 14 10 9 -3 -4 -11 0 -15 13 -13 10 2
23 -3 28 -11 9 -12 11 -11 11 5 0 14 -6 19 -18 17 -10 -2 -16 0 -13 6 4 5 10
7 15 4 4 -3 11 1 13 7 4 10 6 10 6 1 1 -7 8 -13 17 -13 8 0 12 5 9 11 -4 6 3
5 14 -3 18 -11 23 -11 31 2 8 12 10 12 10 1 0 -11 3 -11 15 -1 8 7 15 9 15 4
0 -5 5 -2 10 6 8 13 10 13 10 -2 0 -9 -4 -20 -10 -23 -5 -3 -10 -1 -10 5 0 6
-4 8 -10 5 -19 -12 -10 -20 23 -21 17 -1 26 1 19 3 -6 3 -10 9 -7 13 3 5 12 7
20 4 8 -4 12 -10 9 -15 -3 -5 2 -6 10 -3 9 3 16 10 16 16 0 5 -4 7 -9 3 -5 -3
-12 -1 -16 4 -3 6 3 8 15 6 11 -2 22 0 25 6 4 5 12 9 18 9 8 0 7 -4 -2 -9 -8
-5 -16 -17 -17 -25 -1 -9 2 -14 7 -10 5 3 7 10 4 15 -9 13 9 11 22 -2 9 -9 10
-7 6 9 -3 15 0 24 11 28 14 5 14 9 4 22 -10 12 -10 14 0 8 6 -4 12 -3 12 3 0
5 -5 11 -12 13 -8 3 -7 6 4 10 12 5 15 0 14 -23 -1 -17 -8 -34 -16 -39 -12 -8
-13 -11 -2 -22 11 -11 13 -10 10 2 -2 8 2 14 9 13 7 -2 10 6 8 18 -3 16 0 19
12 14 15 -5 15 -4 1 12 -8 10 -13 23 -11 30 2 6 -1 14 -6 18 -6 3 -11 1 -11
-4 0 -6 -12 -11 -26 -11 -16 0 -23 -4 -18 -12 4 -7 3 -8 -4 -4 -7 4 -12 15
-13 24 0 13 -3 12 -11 -5 -13 -26 -25 -30 -25 -8 0 8 4 12 9 9 4 -3 8 -1 8 5
0 5 -9 9 -19 8 -11 0 -17 -5 -15 -9 3 -4 -4 -8 -15 -8 -12 0 -21 -5 -21 -12 0
-6 -3 -9 -6 -6 -3 4 0 17 7 30 12 22 11 22 -6 8 -10 -8 -20 -14 -22 -12 -9 6
-23 1 -18 -8 3 -6 -1 -7 -9 -4 -9 3 -13 11 -9 18 5 8 3 8 -8 0 -8 -6 -24 -14
-37 -17 -19 -4 -21 -3 -11 9 10 12 8 14 -12 10 -13 -3 -28 -5 -32 -5 -5 -1 -5
-5 -2 -11 3 -6 -1 -7 -10 -4 -12 5 -13 9 -4 20 6 8 9 14 6 14 -3 0 -9 -5 -12
-10z m-1139 -102 c5 -7 3 -8 -6 -3 -10 6 -12 4 -7 -9 4 -10 3 -15 -3 -11 -13
8 -13 35 -1 35 6 0 13 -5 17 -12z m751 -60 c-3 -8 -6 -5 -6 6 -1 11 2 17 5 13
3 -3 4 -12 1 -19z m-1101 0 c4 -6 3 -8 -4 -4 -5 3 -12 0 -15 -6 -2 -7 -8 -9
-13 -5 -5 4 -2 12 6 17 19 12 17 12 26 -2z m74 -4 c0 -2 -7 -4 -15 -4 -8 0
-15 4 -15 10 0 5 7 7 15 4 8 -4 15 -8 15 -10z m-428 -261 c-6 -2 -10 -8 -8
-12 3 -4 -1 -8 -9 -8 -11 0 -12 4 -4 14 6 7 17 13 23 12 7 0 6 -2 -2 -6z"/>
<path d="M1796 1472 c-3 -5 1 -9 9 -9 8 0 12 4 9 9 -3 4 -7 8 -9 8 -2 0 -6 -4
-9 -8z"/>
<path d="M2964 1469 c-4 -7 -3 -9 4 -5 6 3 13 -2 15 -11 4 -16 5 -16 6 -1 1
21 -15 32 -25 17z"/>
<path d="M3255 1470 c3 -5 8 -10 11 -10 2 0 4 5 4 10 0 6 -5 10 -11 10 -5 0
-7 -4 -4 -10z"/>
<path d="M2898 1442 c2 -8 8 -9 11 -4 3 5 14 8 24 6 9 -1 17 1 17 6 0 4 -13 7
-29 6 -20 0 -27 -5 -23 -14z"/>
<path d="M2397 1423 c-4 -3 -7 -11 -7 -17 0 -6 5 -5 12 2 6 6 9 14 7 17 -3 3
-9 2 -12 -2z"/>
<path d="M2366 1403 c-6 -14 -5 -15 5 -6 7 7 10 15 7 18 -3 3 -9 -2 -12 -12z"/>
<path d="M2070 1389 c0 -5 5 -7 10 -4 6 3 10 8 10 11 0 2 -4 4 -10 4 -5 0 -10
-5 -10 -11z"/>
<path d="M3450 1350 c0 -5 5 -10 11 -10 5 0 7 5 4 10 -3 6 -8 10 -11 10 -2 0
-4 -4 -4 -10z"/>
<path d="M3275 1340 c3 -5 8 -10 11 -10 2 0 4 5 4 10 0 6 -5 10 -11 10 -5 0
-7 -4 -4 -10z"/>
<path d="M3150 1330 c0 -5 5 -10 10 -10 6 0 10 5 10 10 0 6 -4 10 -10 10 -5 0
-10 -4 -10 -10z"/>
<path d="M1756 1313 c-6 -14 -5 -15 5 -6 7 7 10 15 7 18 -3 3 -9 -2 -12 -12z"/>
<path d="M1115 1310 c-3 -5 -1 -10 4 -10 6 0 11 5 11 10 0 6 -2 10 -4 10 -3 0
-8 -4 -11 -10z"/>
<path d="M1697 1290 c3 -11 9 -17 15 -14 5 3 4 12 -3 20 -16 19 -18 18 -12 -6z"/>
<path d="M2764 1292 c4 -3 14 -7 22 -8 9 -1 13 0 10 4 -4 3 -14 7 -22 8 -9 1
-13 0 -10 -4z"/>
<path d="M2573 1255 c0 -8 4 -12 9 -9 5 3 6 10 3 15 -9 13 -12 11 -12 -6z"/>
<path d="M435 1250 c3 -5 8 -10 11 -10 2 0 4 5 4 10 0 6 -5 10 -11 10 -5 0 -7
-4 -4 -10z"/>
<path d="M1333 1245 c0 -8 4 -12 9 -9 4 3 8 9 8 15 0 5 -4 9 -8 9 -5 0 -9 -7
-9 -15z"/>
<path d="M1575 1250 c-3 -5 -1 -10 4 -10 6 0 11 5 11 10 0 6 -2 10 -4 10 -3 0
-8 -4 -11 -10z"/>
<path d="M2470 1250 c0 -5 5 -10 11 -10 5 0 7 5 4 10 -3 6 -8 10 -11 10 -2 0
-4 -4 -4 -10z"/>
<path d="M2625 1250 c3 -5 8 -10 11 -10 2 0 4 5 4 10 0 6 -5 10 -11 10 -5 0
-7 -4 -4 -10z"/>
<path d="M2416 1238 c3 -5 10 -6 15 -3 13 9 11 12 -6 12 -8 0 -12 -4 -9 -9z"/>
<path d="M590 1210 c0 -5 5 -10 10 -10 6 0 10 5 10 10 0 6 -4 10 -10 10 -5 0
-10 -4 -10 -10z"/>
<path d="M2240 1200 c8 -5 20 -10 25 -10 6 0 3 5 -5 10 -8 5 -19 10 -25 10 -5
0 -3 -5 5 -10z"/>
<path d="M2174 1189 c-4 -7 -3 -9 4 -5 6 3 13 -2 15 -11 4 -16 5 -16 6 -1 1
21 -15 32 -25 17z"/>
<path d="M1540 1169 c0 -5 5 -7 10 -4 6 3 10 8 10 11 0 2 -4 4 -10 4 -5 0 -10
-5 -10 -11z"/>
<path d="M1626 1024 c-11 -8 -16 -14 -10 -14 13 0 39 18 34 24 -3 2 -14 -2
-24 -10z"/>
<path d="M995 921 c6 -11 4 -13 -8 -8 -23 9 -21 0 2 -13 15 -7 19 -7 17 5 -1
8 -6 18 -11 22 -4 5 -5 2 0 -6z"/>
<path d="M1136 811 c-4 -5 -2 -12 3 -15 5 -4 12 -2 15 3 4 5 2 12 -3 15 -5 4
-12 2 -15 -3z"/>
</g>
</svg>
